<?xml version="1.0" encoding="utf-8"?>
<!-- Generator: Adobe Illustrator 26.5.0, SVG Export Plug-In . SVG Version: 6.00 Build 0)  -->
<svg version="1.1" id="Layer_1" xmlns="http://www.w3.org/2000/svg" xmlns:xlink="http://www.w3.org/1999/xlink" x="0px" y="0px"
	 viewBox="0 0 512 512" style="enable-background:new 0 0 512 512;" xml:space="preserve">
<style type="text/css">
	.st0{fill:#D24527;}
</style>
<path class="st0" d="M296,40c13.3,0,24,10.8,24,24s-10.7,24-24,24H56c-13.2,0-24-10.8-24-24s10.8-24,24-24H296z M456,168
	c13.3,0,24,10.7,24,24s-10.7,24-24,24H56c-13.2,0-24-10.7-24-24s10.8-24,24-24H456z M32,320c0-13.3,10.8-24,24-24h240
	c13.3,0,24,10.7,24,24s-10.7,24-24,24H56C42.8,344,32,333.3,32,320z M456,424c13.3,0,24,10.7,24,24s-10.7,24-24,24H56
	c-13.2,0-24-10.7-24-24s10.8-24,24-24H456z"/>
</svg>
