<?xml version="1.0" encoding="utf-8"?>
<!-- Generator: Adobe Illustrator 26.5.0, SVG Export Plug-In . SVG Version: 6.00 Build 0)  -->
<svg version="1.1" id="Layer_1" xmlns="http://www.w3.org/2000/svg" xmlns:xlink="http://www.w3.org/1999/xlink" x="0px" y="0px"
	 viewBox="0 0 512 512" style="enable-background:new 0 0 512 512;" xml:space="preserve">
<style type="text/css">
	.st0{fill:#D24527;}
</style>
<path class="st0" d="M208.2,22.1c-93.4,18.3-168.7,93.7-187,187.1C-6.4,350.1,89.9,475.4,220.3,494.3c19,2.9,36.2-12.3,36.2-31.5
	l0-0.7c0-15.7-11.4-28.9-26.8-31.2c-84.4-13-149.2-86.1-149.2-174.2c0-102.9,88.6-185.5,193.4-175.4
	c91.5,8.9,158.6,91.2,158.6,183.2v16.2c0,22.1-17.9,40-40,40s-40-18-40-40V160.6c0-8.8-7.2-16-16-16l-32,0c-7.3,0-13.2,5-15.1,11.7
	c-24.9-12.1-54.2-16.4-86.1-5.1c-38.8,13.7-68.1,48.9-73.7,89.6c-9.5,69,43.8,128,110.9,128c26.4,0,50.4-9.5,69.6-24.9
	c24,31.3,65.2,48.7,109.4,37.5c46.2-10.7,77-55.9,76.1-102.8v-20.9C495.5,108.5,361.6-8,208.2,22.1z M239.5,305.7
	c-26.5,0-48-21.6-48-48s21.5-48.1,48-48.1s48,21.6,48,48.1C287.5,284.1,266.9,305.7,239.5,305.7z"/>
</svg>
