<?xml version="1.0" encoding="utf-8"?>
<!-- Generator: Adobe Illustrator 26.4.1, SVG Export Plug-In . SVG Version: 6.00 Build 0)  -->
<svg version="1.1" id="Layer_1" xmlns="http://www.w3.org/2000/svg" xmlns:xlink="http://www.w3.org/1999/xlink" x="0px" y="0px"
	 viewBox="0 0 512 512" style="enable-background:new 0 0 512 512;" xml:space="preserve">
<style type="text/css">
	.st0{fill:#D24527;}
</style>
<path class="st0" d="M446.5,113.1H383V81.4c0-35.1-28.4-63.5-63.5-63.5h-127c-35,0-63.5,28.4-63.5,63.5v31.8H65.5
	C30.4,113.1,2,141.6,2,176.6v254c0,35.1,28.4,63.5,63.5,63.5h381c35.1,0,63.5-28.4,63.5-63.5v-254
	C510,141.6,481.5,113.1,446.5,113.1z M176.6,81.4c0-8.8,7.1-15.9,15.9-15.9h127c8.8,0,15.9,7.1,15.9,15.9v31.8H176.6V81.4z
	 M462.4,430.6c0,8.7-7.1,15.9-15.9,15.9h-381c-8.7,0-15.9-7.1-15.9-15.9v-254c0-8.7,7.1-15.9,15.9-15.9h381
	c8.7,0,15.9,7.1,15.9,15.9V430.6z M335.4,271.9h-47.6v-47.6c0-8.7-7.1-15.9-15.9-15.9h-31.8c-8.7,0-15.9,7.1-15.9,15.9v47.6h-47.6
	c-8.7,0-15.9,7.1-15.9,15.9v31.8c0,8.7,7.1,15.9,15.9,15.9h47.6V383c0,8.7,7.1,15.9,15.9,15.9h31.8c8.8,0,15.9-7.1,15.9-15.9v-47.6
	h47.6c8.8,0,15.9-7.1,15.9-15.9v-31.8C351.2,279,344.1,271.9,335.4,271.9z"/>
</svg>
