<?xml version="1.0" encoding="utf-8"?>
<!-- Generator: Adobe Illustrator 26.4.1, SVG Export Plug-In . SVG Version: 6.00 Build 0)  -->
<svg version="1.1" id="Layer_1" xmlns="http://www.w3.org/2000/svg" xmlns:xlink="http://www.w3.org/1999/xlink" x="0px" y="0px"
	 viewBox="0 0 512 512" style="enable-background:new 0 0 512 512;" xml:space="preserve">
<style type="text/css">
	.st0{fill:#D04528;}
</style>
<path class="st0" d="M256,462.4c114,0,206.4-92.4,206.4-206.4S370,49.6,256,49.6S49.6,142,49.6,256c0,5.5,0.2,10.8,0.6,16.2
	L3.7,285.9C2.6,276,2,266.1,2,256C2,115.7,115.7,2,256,2s254,113.7,254,254S396.3,510,256,510c-10.1,0-20-0.6-29.9-1.8l13.7-46.4
	C245.2,462.2,250.5,462.4,256,462.4z M267.8,366.5c55.9-6,99.3-53.2,99.3-110.5c0-61.4-49.7-111.1-111.1-111.1
	c-57.3,0-104.6,43.5-110.5,99.3l-48.2,14.2c0-0.8,0-1.6,0-2.4c0-87.7,71-158.8,158.8-158.8s158.8,71,158.8,158.8
	s-71,158.8-158.8,158.8c-0.8,0-1.6-0.9-2.4-0.9L267.8,366.5z M40.7,308.1L244,248.4c12-3.6,23.2,6.7,19.6,19.6l-59.7,202.4
	c-4.1,14.7-23,16.4-29.5,3.5L146.1,417c-0.7-2.2-1.6-2.6-2.6-3.7l-87.3,87.3c-12.4,12.4-32.5,12.4-44.9,0
	c-12.4-12.4-12.4-32.4,0-44.8l87.3-87.3c-1.1-1-2.3-1.9-3.7-2.6l-56.9-28.4C25.2,331.1,26.9,312.2,40.7,308.1L40.7,308.1z"/>
</svg>
