<?xml version="1.0" encoding="utf-8"?>
<!-- Generator: Adobe Illustrator 26.5.0, SVG Export Plug-In . SVG Version: 6.00 Build 0)  -->
<svg version="1.1" id="Layer_1" xmlns="http://www.w3.org/2000/svg" xmlns:xlink="http://www.w3.org/1999/xlink" x="0px" y="0px"
	 viewBox="0 0 512 512" style="enable-background:new 0 0 512 512;" xml:space="preserve">
<style type="text/css">
	.st0{fill:#D24527;}
</style>
<g>
	<path class="st0" d="M192.8,340.5c2.9-4.1,5.2-8.8,8.7-12.3c72.7-72.9,145.5-145.7,218.4-218.6c2.9-2.9,5.7-5.9,8.8-8.6
		c14.9-13,35.6-13,48.3-0.2c12,12.1,12.1,34.7-0.7,48.4c-14.1,14.9-28.8,29.2-43.3,43.6c-70.3,70.4-140.5,140.5-210.8,210.8
		c-22.9,22.8-40.6,23-63.1,0.5c-39.6-39.6-79.5-79.1-118.7-119.1c-6.1-6.3-11.4-14.6-13.4-22.9c-3.7-15.7,3.7-29,16.5-35.5
		c14.3-7.3,29.5-4.8,42.3,8.1c31.2,31.4,62,63,92.8,94.7c3.1,3.2,5.4,7.4,8.1,11C188.7,340.4,190.8,340.4,192.8,340.5z"/>
</g>
</svg>
