<?xml version="1.0" encoding="utf-8"?>
<!-- Generator: Adobe Illustrator 26.4.1, SVG Export Plug-In . SVG Version: 6.00 Build 0)  -->
<svg version="1.1" id="Layer_1" xmlns="http://www.w3.org/2000/svg" xmlns:xlink="http://www.w3.org/1999/xlink" x="0px" y="0px"
	 viewBox="0 0 512 512" style="enable-background:new 0 0 512 512;" xml:space="preserve">
<style type="text/css">
	.st0{fill:#D24527;}
</style>
<path class="st0" d="M256,2C115.7,2,2,115.7,2,256s113.7,254,254,254s254-113.7,254-254S396.3,2,256,2z M256,462.4
	c-113.8,0-206.4-92.6-206.4-206.4S142.2,49.6,256,49.6S462.4,142.2,462.4,256S369.8,462.4,256,462.4z M327.4,335.4h-81.2l62.6-56.8
	c16.9-16.6,26.2-38.6,26.2-62.1s-9.3-45.5-26.2-62.1c-34.5-33.9-90.7-33.9-125.3,0l-10.9,10.7c-9.4,9.1-9.5,24.2-0.3,33.6
	c9.2,9.4,24.3,9.6,33.6,0.3l10.9-10.7c16.2-15.8,42.5-15.8,58.5,0c7.6,7.5,11.9,17.6,11.9,28.1s-4.3,20.5-11.2,27.5l-107.6,97.5
	c-7.2,6.6-9.7,17.1-6.3,26.2c3.6,9.2,12.4,15.3,22.2,15.3h142.9c13.1,0,23.8-10.7,23.8-23.8C351.2,346,340.6,335.4,327.4,335.4z"/>
</svg>
