<?xml version="1.0" encoding="utf-8"?>
<!-- Generator: Adobe Illustrator 26.4.1, SVG Export Plug-In . SVG Version: 6.00 Build 0)  -->
<svg version="1.1" id="Layer_1" xmlns="http://www.w3.org/2000/svg" xmlns:xlink="http://www.w3.org/1999/xlink" x="0px" y="0px"
	 viewBox="0 0 512 512" style="enable-background:new 0 0 512 512;" xml:space="preserve">
<style type="text/css">
	.st0{fill:#D24527;}
</style>
<path class="st0" d="M256,113.1c-48.2,0-87.3,39.1-87.3,87.3s39.1,87.3,87.3,87.3s87.3-39.1,87.3-87.3S304.2,113.1,256,113.1z
	 M256,240.1c-21.9,0-39.7-17.8-39.7-39.7c0-21.9,17.8-39.7,39.7-39.7s39.7,17.8,39.7,39.7C295.7,222.4,277.9,240.1,256,240.1z
	 M256,2C115.7,2,2,115.7,2,256s113.7,254,254,254s254-113.7,254-254S396.3,2,256,2z M256,462.4c-46.4,0-89.1-15.6-123.5-41.5
	c17.2-33,50.5-53.8,88-53.8h71.1c37.5,0,70.8,20.8,88,53.8C345.1,446.8,302.3,462.4,256,462.4z M414.9,387.5
	c-26.8-41.9-72.4-68-123.4-68h-71c-51,0-96.6,26-123.4,67.9C67.4,351.7,49.6,305.9,49.6,256c0-113.8,92.6-206.4,206.4-206.4
	S462.4,142.2,462.4,256C462.4,305.9,444.5,351.7,414.9,387.5z"/>
</svg>
