<?xml version="1.0" encoding="utf-8"?>
<!-- Generator: Adobe Illustrator 26.4.1, SVG Export Plug-In . SVG Version: 6.00 Build 0)  -->
<svg version="1.1" id="Layer_1" xmlns="http://www.w3.org/2000/svg" xmlns:xlink="http://www.w3.org/1999/xlink" x="0px" y="0px"
	 viewBox="0 0 512 512" style="enable-background:new 0 0 512 512;" xml:space="preserve">
<style type="text/css">
	.st0{fill:#D24527;}
</style>
<path class="st0" d="M256,2C115.7,2,2,115.7,2,256s113.7,254,254,254s254-113.7,254-254S396.3,2,256,2z M256,462.4
	c-113.8,0-206.4-92.6-206.4-206.4S142.2,49.6,256,49.6S462.4,142.2,462.4,256S369.8,462.4,256,462.4z M256,303.6
	c13.1,0,23.8-10.7,23.8-23.8v-127c0-13.1-10.6-23.8-23.8-23.8s-23.8,10.7-23.8,23.8v127C232.2,293,242.9,303.6,256,303.6z
	 M256,336.5c-17.2,0-31.2,14-31.2,31.2c0,17.2,13.9,31.2,31.2,31.2s31.2-14,31.2-31.2C287.2,350.5,273.3,336.5,256,336.5z"/>
</svg>
