<?xml version="1.0" encoding="utf-8"?>
<!-- Generator: Adobe Illustrator 26.4.1, SVG Export Plug-In . SVG Version: 6.00 Build 0)  -->
<svg version="1.1" id="Layer_1" xmlns="http://www.w3.org/2000/svg" xmlns:xlink="http://www.w3.org/1999/xlink" x="0px" y="0px"
	 viewBox="0 0 512 512" style="enable-background:new 0 0 512 512;" xml:space="preserve">
<style type="text/css">
	.st0{fill:#D24527;}
</style>
<path class="st0" d="M174.6,174.6c9.3-9.2,24.4-9.2,32.8,0l46.6,46.7l47.5-46.7c9.3-9.2,24.4-9.2,32.8,0c10.1,9.3,10.1,24.4,0,32.8
	l-45.8,46.6l45.8,47.5c10.1,9.3,10.1,24.4,0,32.8c-8.4,10.1-23.5,10.1-32.8,0l-47.5-45.8l-46.6,45.8c-8.4,10.1-23.5,10.1-32.8,0
	c-9.2-8.4-9.2-23.5,0-32.8l46.7-47.5l-46.7-46.6C165.4,199,165.4,184,174.6,174.6L174.6,174.6z M509,255c0,140.3-113.7,254-254,254
	S1,395.3,1,255S114.7,1,255,1S509,114.7,509,255z M255,48.6C141,48.6,48.6,141,48.6,255S141,461.4,255,461.4S461.4,369,461.4,255
	S369,48.6,255,48.6z"/>
</svg>
