<?xml version="1.0" encoding="utf-8"?>
<!-- Generator: Adobe Illustrator 26.4.1, SVG Export Plug-In . SVG Version: 6.00 Build 0)  -->
<svg version="1.1" id="Layer_1" xmlns="http://www.w3.org/2000/svg" xmlns:xlink="http://www.w3.org/1999/xlink" x="0px" y="0px"
	 viewBox="0 0 512 512" style="enable-background:new 0 0 512 512;" xml:space="preserve">
<style type="text/css">
	.st0{fill:#D24527;}
</style>
<path class="st0" d="M256,2C115.7,2,2,115.7,2,256s113.7,254,254,254s254-113.7,254-254S396.3,2,256,2z M256,462.4
	c-113.8,0-206.4-92.6-206.4-206.4S142.2,49.6,256,49.6S462.4,142.2,462.4,256S369.8,462.4,256,462.4z M319.5,335.4h-39.7V152.8
	c0-8.7-4.9-16.9-12.6-21c-7.7-4.2-17.1-3.8-24.4,1.2l-51.6,34.4c-10.9,7.2-13.9,22-6.6,32.1c7.2,10.9,22,13.9,33,6.6l14.6-8.9v138.1
	h-39.7c-13.1,0-23.8,10.7-23.8,23.8s10.7,23.8,23.8,23.8h127c13.1,0,23.8-10.7,23.8-23.8S332.7,335.4,319.5,335.4z"/>
</svg>
