<?xml version="1.0" encoding="utf-8"?>
<!-- Generator: Adobe Illustrator 26.4.1, SVG Export Plug-In . SVG Version: 6.00 Build 0)  -->
<svg version="1.1" id="Layer_1" xmlns="http://www.w3.org/2000/svg" xmlns:xlink="http://www.w3.org/1999/xlink" x="0px" y="0px"
	 viewBox="0 0 512 512" style="enable-background:new 0 0 512 512;" xml:space="preserve">
<style type="text/css">
	.st0{fill:#D24527;}
</style>
<path class="st0" d="M256,2C115.7,2,2,115.7,2,256s113.7,254,254,254s254-113.7,254-254S396.3,2,256,2z M256,462.4
	c-113.8,0-206.4-92.6-206.4-206.4S142.2,49.6,256,49.6S462.4,142.2,462.4,256S369.8,462.4,256,462.4z M256,335.4
	c-17.9,0-31.8,13.9-31.8,31.8s13,31.8,31.8,31.8c17,0,31.8-13.9,31.8-31.8S273,335.4,256,335.4z M288.8,129h-50.7
	c-38.7,0-69.5,30.8-69.5,69.5c0,12.9,10.9,23.8,23.8,23.8s23.8-10.9,23.8-23.8c0-11.9,9-21.8,20.9-21.8h50.7
	c12.8,0,23.6,9.9,23.6,21.8c0,7.9-4,14-10.9,18L244.1,251c-7.9,5-11.9,12.9-11.9,20.8v15.9c0,12.9,10.9,23.8,23.8,23.8
	s23.8-10.9,23.8-23.8v-2l44.7-27.8c20.8-12.9,33.7-35.7,33.7-59.5C359.2,159.8,328.4,129,288.8,129z"/>
</svg>
