<?xml version="1.0" encoding="utf-8"?>
<!-- Generator: Adobe Illustrator 26.4.1, SVG Export Plug-In . SVG Version: 6.00 Build 0)  -->
<svg version="1.1" id="Layer_1" xmlns="http://www.w3.org/2000/svg" xmlns:xlink="http://www.w3.org/1999/xlink" x="0px" y="0px"
	 viewBox="0 0 512 512" style="enable-background:new 0 0 512 512;" xml:space="preserve">
<style type="text/css">
	.st0{fill:#D24527;}
</style>
<path class="st0" d="M242.9,338.1c-10.8,10.8-28.5,10.8-39.3,0l-63.5-63.5c-10.8-10.8-10.8-28.5,0-39.3s28.5-10.8,39.3,0l43.9,43.9
	l107.4-107.4c10.8-10.8,28.5-10.8,39.3,0c10.8,10.8,10.8,28.5,0,39.3L242.9,338.1z M509,255c0,140.3-113.7,254-254,254
	S1,395.3,1,255S114.7,1,255,1S509,114.7,509,255z M255,48.6C141,48.6,48.6,141,48.6,255S141,461.4,255,461.4S461.4,369,461.4,255
	S369,48.6,255,48.6z"/>
</svg>
