<?xml version="1.0" encoding="utf-8"?>
<!-- Generator: Adobe Illustrator 26.5.0, SVG Export Plug-In . SVG Version: 6.00 Build 0)  -->
<svg version="1.1" id="Layer_1" xmlns="http://www.w3.org/2000/svg" xmlns:xlink="http://www.w3.org/1999/xlink" x="0px" y="0px"
	 viewBox="0 0 512 512" style="enable-background:new 0 0 512 512;" xml:space="preserve">
<style type="text/css">
	.st0{fill:#D24527;}
</style>
<path class="st0" d="M330.1,87.9l-100,350c-3.8,13.3-17.7,20.9-30.9,17.2c-13.3-3.8-20.9-17.7-17.2-30.9l100-350
	c3.8-13.3,17.7-21,30.9-17.2C326.2,60.7,333.8,74.6,330.1,87.9L330.1,87.9z M411.2,150.8l87.5,87.5c9.8,9.8,9.8,25.5,0,35.3
	l-87.5,87.5c-9.8,9.8-25.5,9.8-35.3,0c-9.8-9.8-9.8-25.5,0-35.3l69.8-69.8l-69.8-69.8c-9.8-9.8-9.8-25.5,0-35.3
	C385.6,141.1,401.4,141.1,411.2,150.8L411.2,150.8z M136.2,186.1L66.4,256l69.8,69.8c9.8,9.8,9.8,25.5,0,35.3
	c-9.8,9.8-25.5,9.8-35.3,0l-87.5-87.5c-9.8-9.8-9.8-25.5,0-35.3l87.5-87.5c9.8-9.8,25.5-9.8,35.3,0
	C145.9,160.6,145.9,176.4,136.2,186.1L136.2,186.1z"/>
</svg>
