<?xml version="1.0" encoding="utf-8"?>
<!-- Generator: Adobe Illustrator 26.5.0, SVG Export Plug-In . SVG Version: 6.00 Build 0)  -->
<svg version="1.1" id="Layer_1" xmlns="http://www.w3.org/2000/svg" xmlns:xlink="http://www.w3.org/1999/xlink" x="0px" y="0px"
	 viewBox="0 0 512 512" style="enable-background:new 0 0 512 512;" xml:space="preserve">
<style type="text/css">
	.st0{fill:#D24527;}
</style>
<g>
	<path class="st0" d="M100.8,76.3c8.6,2.2,21.1,5,33.2,8.7c6.4,2,11,0.2,16.9-2.2c13.8-5.7,19-16,21-29.6c1-6.6,2.8-13.2,5.5-19.3
		C185.2,16,199.9,7,218.9,6.5c24.9-0.7,49.9-0.6,74.8,0C316,7,332.1,20.4,338,41.9c2.5,9,4.3,18.1,6.9,27.1c0.8,2.5,3,4.9,5.2,6.7
		c2.3,1.9,5.7,2.6,7.8,4.6c8.1,7.6,16.8,6.6,26.3,3.1c6.7-2.4,13.7-4,20.7-5.6c18.1-4.1,36.6,2.5,46.5,18.4
		c14,22.4,27.4,45.2,39.8,68.6c10.9,20.5,5.8,42-11.4,57.8c-2.6,2.3-4.8,5.3-7.7,6.9c-16.4,9.1-12.9,24.5-12.6,38.9
		c0,1.6,1.7,3.4,3.1,4.7c5.9,5.8,11.9,11.4,17.8,17.1c17.9,17.4,21.4,39.1,9.2,61c-11.3,20.3-22.9,40.3-34.8,60.2
		c-12.5,20.9-31.4,28.2-55,21.9c-8.6-2.3-17.1-5-25.7-7c-2.6-0.6-5.8,0-8.5,0.9c-15.1,5.5-23.1,16.1-25.2,32.4
		c-1.2,9-4.6,18.3-9.4,26c-8.6,13.9-22.4,20.1-38.6,20.2c-24.1,0.2-48.2,0.4-72.2,0c-23-0.4-39.3-13.3-45.5-35.6
		c-2.5-9-4.3-18.1-6.9-27.1c-0.8-2.6-3.1-4.9-5.2-6.7c-1.9-1.7-4.8-2.2-6.7-3.9c-8.8-8-18.3-7.6-28.7-3.5
		c-6.2,2.4-12.9,3.8-19.4,5.3c-19.2,4.3-35.6-1.3-46-17.6c-15.1-23.8-29.3-48.2-42.2-73.2c-8.5-16.5-4.3-33.3,7.5-47.3
		C34,287.9,42.5,281,50,273.1c1.8-1.9,2.9-5,3.4-7.8c3.7-18-3.7-30.7-18.2-41.1c-11.2-8-18.2-19.6-18.7-33.5
		c-0.3-7.8,0.2-16.6,3.7-23.2c12.7-23.9,26.3-47.4,40.4-70.5C68.6,83.9,80.9,76.5,100.8,76.3z M414.6,389.1
		c11.7-20.2,23-39.9,34.6-59.5c2.1-3.6,0-5.1-2-7c-10.9-10.3-21.6-20.7-32.6-30.9c-3.4-3.1-4-6-3.8-10.6c0.6-17,0-34.1,0.2-51.2
		c0-2.8,0.8-6.5,2.7-8.3c9.4-9.6,19.3-18.7,29.1-27.9c8.3-7.8,8.3-7.7,2.6-17.6c-10.2-17.6-20.3-35.2-30.7-53.1
		c-16.4,4.8-32.4,9.4-48.3,14.2c-3.9,1.2-6.7,0.5-10.1-1.7c-11.3-7.6-22.2-16.6-34.7-21.4c-12.6-4.9-17.9-12.2-19.9-24.9
		c-1.9-12.3-5.9-24.2-8.9-36.1c-24.7,0-48.5,0-72.6,0c-4,16.8-7.8,33.5-11.9,50.1c-0.5,2.1-2.5,4.7-4.4,5.4
		c-15.5,5-29.4,12.9-41.8,23.3c-6.9,5.8-13.3,6.8-21.7,3.6c-9.7-3.7-19.9-5.9-29.9-8.8c-4.1-1.2-8.2-2.3-12.3-3.4
		c-11.6,20.1-22.8,39.7-34.3,59.1c-2,3.4-0.6,5,1.6,7.1c11.1,10.4,22,21,33.1,31.3c3.1,2.9,3.8,5.7,3.6,10.1
		c-0.6,17-0.5,34.1,0,51.2c0.1,3.8-0.1,6.4-3,9.1c-11.3,10.5-22.3,21.2-33.6,31.7c-2.9,2.6-3.4,4.6-1.2,8.2
		c8.4,13.9,16.3,28.1,24.5,42.2c3.1,5.4,6.3,10.7,9.5,16.1c16-4.6,31.5-8.8,46.7-13.7c5.1-1.6,8.6-0.7,13,2.1
		c13.3,8.4,26.6,17,40.7,23.9c6,3,9.6,5.3,10.9,12.2c2.9,15.2,6.9,30.3,10.4,45.5c24.4,0,48.3,0,72.4,0c0.6-2.2,1.3-4.2,1.8-6.2
		c3.6-14.3,7-28.6,10.8-42.8c0.6-2.4,2.4-5.6,4.4-6.3c17.5-5.9,32.3-16.4,47.2-27c2.3-1.7,6.5-2.3,9.3-1.6
		C382,379.4,397.9,384.3,414.6,389.1z"/>
	<path class="st0" d="M256.4,349.6c-51.6,0.2-93.6-41.8-93.6-93.4c0-51.8,41.5-93.5,93.4-93.7c51.6-0.2,93.2,41.3,93.6,93.4
		C350.2,307.3,308.2,349.5,256.4,349.6z M256.3,209.1c-25.3,0-46.9,21.7-47,46.9c0,25.4,21.2,46.8,46.7,47.1
		c25.4,0.3,47.4-21.7,47.3-47.2C303.2,230.6,281.5,209,256.3,209.1z"/>
</g>
</svg>
