<?xml version="1.0" encoding="utf-8"?>
<!-- Generator: Adobe Illustrator 26.4.1, SVG Export Plug-In . SVG Version: 6.00 Build 0)  -->
<svg version="1.1" id="Layer_1" xmlns="http://www.w3.org/2000/svg" xmlns:xlink="http://www.w3.org/1999/xlink" x="0px" y="0px"
	 viewBox="0 0 512 512" style="enable-background:new 0 0 512 512;" xml:space="preserve">
<style type="text/css">
	.st0{fill:#D24527;}
</style>
<path class="st0" d="M488.2,23c-9.4-9.4-24.6-9.4-33.9,0l-81.4,81.4l-47-47c-6.1-6.1-14.3-9.3-22.6-9.3c-4.1,0-8.3,0.8-12.2,2.4
	c-12,5-19.8,16.6-19.8,29.6v135.1c0,13.2,10.7,23.1,24,23.1h136c12.9,0,24.6-7.8,29.6-19.8c5-12,2.2-25.7-6.9-34.9l-47-47l81.4-81.4
	C498.4,47.6,498.4,32.4,488.2,23z M215.2,272h-136c-12.9,0-24.6,7.8-29.6,19.8c-4.1,12-1.3,25.8,7.8,34.9l47,47L23.2,455
	c-9.4,9.4-9.4,24.6,0,33.9s24.6,9.4,33.9,0l81.4-81.4l47,47c6.1,6.1,14.3,9.4,22.6,9.4c4.1,0,8.3-0.8,12.2-2.4
	c12-5,19.8-16.6,19.8-29.6V296C239.2,282.7,229.4,272,215.2,272z"/>
</svg>
