<?xml version="1.0" encoding="utf-8"?>
<!-- Generator: Adobe Illustrator 26.5.0, SVG Export Plug-In . SVG Version: 6.00 Build 0)  -->
<svg version="1.1" id="Layer_1" xmlns="http://www.w3.org/2000/svg" xmlns:xlink="http://www.w3.org/1999/xlink" x="0px" y="0px"
	 viewBox="0 0 512 512" style="enable-background:new 0 0 512 512;" xml:space="preserve">
<style type="text/css">
	.st0{fill:#D24527;}
</style>
<g>
	<path class="st0" d="M6,246.5C7.6,110.3,115.5,4.2,251.9,7.3c84.6,2,153.2,37.9,204.3,105.9c9.4,12.5,8.9,25.4-0.8,33.8
		c-9.9,8.5-23.7,6.7-33.8-6.3c-24.4-31.5-54.1-55.9-90.8-71.2C214.9,21.1,82.7,82.7,56.6,205.7c-3.9,18.4-3.6,37.8-4.5,56.7
		c-0.8,17.3-8.6,28.5-21.6,29C16.8,291.9,6.4,279.6,6,262C5.9,256.9,6,251.7,6,246.5z"/>
	<path class="st0" d="M358.5,297.4c-4,37.8-7.8,75.6-12.3,113.4c-1.9,16.3-12.2,24.4-25.9,22.6c-12.7-1.7-19.6-12-18.6-27.9
		c3-45.3,7.3-90.5,8.5-135.8c1-36.3-29.8-61-65.5-55.7c-26.4,3.9-42.4,24.6-44.3,54.1c-2.8,43.5-6.9,86.9-10.6,130.4
		c-0.4,4.7-1.4,9.4-2.6,14c-3.7,13.8-15.2,20.7-28.7,17.6c-11.9-2.7-17.8-12.6-15.8-27.1c3.1-23.1,7.2-46.1,9.2-69.4
		c2.3-26.2,1.9-52.7,4.4-79c6.6-69.2,79-108.4,141.8-77.2c37.7,18.7,56.2,49.7,58.2,91.1c0.5,9.5,0.1,19,0.1,28.6
		C357.1,297.2,357.8,297.3,358.5,297.4z"/>
	<path class="st0" d="M435.5,289.2c-2.1,28.4-4.2,56.9-6.3,85.3c-1.2,16.2-11.4,26.8-24.7,25.8c-12.9-1-20.6-11.9-20-28.5
		c1.3-32.4,3.3-64.8,3.9-97.2c1.2-73.9-43-127.7-115.7-139.7c-15.4-2.5-31.8-0.6-47.6,1c-20,2-31.6-4.3-32.6-20
		c-0.9-13.5,5.6-21.8,21-24.8c52.3-10.2,101-0.9,144.2,30.3C414.4,162.6,439.2,219.3,435.5,289.2z"/>
	<path class="st0" d="M69.9,370.1c3.8-49.5,6.5-99.1,11.8-148.5c2.6-24.8,15.2-46.7,30.4-66.6c9.9-13,22.2-15.5,33.8-7.5
		c10.7,7.4,12.3,19.1,2.7,32.9c-19.6,28.1-26.2,59.1-27,93c-0.9,34-5.6,68-9.3,101.9c-1.5,13.9-11.5,21.6-23.7,20.4
		C76.2,394.6,68,384,69.9,370.1z"/>
	<path class="st0" d="M278.5,312.6c-2.3,57.8-12.4,114.3-26.5,170.3c-4.1,16.4-15.4,24.4-28.8,21.2c-13.9-3.3-20.3-15-15.7-31.7
		c17.9-65.1,26.3-131.3,26.7-198.8c0.1-17.2,8.4-26.6,22-26.5c14,0.1,22.2,10.2,22.3,27.8C278.6,287.5,278.5,300,278.5,312.6z"/>
	<path class="st0" d="M504.1,256.8c0,7.3,0.9,14.8-0.2,21.9c-1.7,10.9-8.4,18-19.9,18.7c-11.8,0.7-19.9-5-23.2-16.4
		c-1.3-4.5-1.7-9.3-2.1-14c-1.4-16.7-2.4-33.5-4-50.2c-1.4-14.6,5.8-27,17.5-29c13.2-2.2,24.3,6,27.2,21.5
		c2.8,15.6,4.5,31.5,6.7,47.3C505.4,256.7,504.8,256.7,504.1,256.8z"/>
</g>
</svg>
