<?xml version="1.0" encoding="utf-8"?>
<!-- Generator: Adobe Illustrator 26.4.1, SVG Export Plug-In . SVG Version: 6.00 Build 0)  -->
<svg version="1.1" id="Layer_1" xmlns="http://www.w3.org/2000/svg" xmlns:xlink="http://www.w3.org/1999/xlink" x="0px" y="0px"
	 viewBox="0 0 512 512" style="enable-background:new 0 0 512 512;" xml:space="preserve">
<style type="text/css">
	.st0{fill:#D04528;}
</style>
<path class="st0" d="M263.1,86.7c-11.6,0-21.2,9.5-21.2,21.2v119.9H44.3V107.8c0-11.7-9.5-21.2-21.2-21.2S2,96.1,2,107.8v296.3
	c0,11.7,9.5,21.2,21.2,21.2s21.2-9.5,21.2-21.2V270.1h197.6v134.1c0,11.7,9.5,21.2,21.2,21.2c11.7,0,21.2-9.4,21.2-21.2V107.8
	C284.2,96.1,274.8,86.7,263.1,86.7z M488.8,383h-42.3V107.9c0-7.8-4.3-15-11.2-18.7c-6.9-3.7-15.3-3.3-21.7,1l-63.5,41.5
	c-9.7,6.5-12.3,19.6-5.9,29.4c6.5,9.7,19.6,12.3,29.4,5.9l30.6-19.6V383h-42.3c-11.7,0-21.2,9.5-21.2,21.2
	c0,11.7,9.5,21.2,21.2,21.2H488c12.4,0,22-9.4,22-21.2C510,392.5,500.6,383,488.8,383z"/>
</svg>
