<?xml version="1.0" encoding="utf-8"?>
<!-- Generator: Adobe Illustrator 26.4.1, SVG Export Plug-In . SVG Version: 6.00 Build 0)  -->
<svg version="1.1" id="Layer_1" xmlns="http://www.w3.org/2000/svg" xmlns:xlink="http://www.w3.org/1999/xlink" x="0px" y="0px"
	 viewBox="0 0 512 512" style="enable-background:new 0 0 512 512;" xml:space="preserve">
<style type="text/css">
	.st0{fill:#D24527;}
</style>
<g>
	<path class="st0" d="M52.8,304.4c0-3.5,0-7.7,0-11.8c0-61.1,0-122.1,0-183.2c0-37.1,20.5-57.4,57.8-57.4c79.1,0,158.2,0,237.2,0
		c40.4,0,60.2,19.9,60.2,60.7c0,4.5,0,9,0,15c-6.7,0-12.6,0-18.5,0s-11.8,0-18.9,0c0-8,0.2-14.9,0-21.9
		c-0.4-11.7-4.7-16.2-16.1-16.2c-83-0.1-165.9,0-248.9-0.1c-9.9,0-15.4,4.5-15.4,14.6c0,66,0,132,0.1,198c0,1,0.5,1.9,1,3.8
		c62.6,0,125.3,0,188.8,0c0,17,0,33,0,49.8c-2.7,0.2-5.4,0.7-8.1,0.7c-75.9,0-151.8,0.1-227.7,0c-22.1,0-36.4-10.3-41.3-29.2
		c-3.7-14.2,1.4-20.8,16-21c10.2-0.2,20.5-0.2,30.7-0.4C50.5,305.9,51.1,305.4,52.8,304.4z"/>
	<path class="st0" d="M509.8,209.7c-0.1-35-21.4-55.8-56.4-55.9c-30-0.1-60-0.1-90,0c-35.2,0.1-56.1,20.8-56.2,55.9
		c-0.1,31.8,0,63.5,0,95.3c0,32.8-0.1,65.6,0,98.5c0.2,33.7,21.2,54.7,55.1,54.8c30.4,0.1,60.7,0.1,91.1,0
		c35-0.1,56.3-20.9,56.4-55.9C510.1,338.1,510.1,273.9,509.8,209.7z M472.5,401.3c0,15.5-3.9,19.4-19.4,19.4
		c-30.4,0-60.7,0.1-91.1,0c-13.3,0-17.4-3.8-17.4-16.8c-0.1-65.3-0.1-130.5,0-195.8c0-12.6,4.1-16.6,16.4-16.7
		c31.4-0.1,62.8-0.1,94.2,0c12.7,0,17.1,4.4,17.2,17.3c0.2,32.8,0.1,65.6,0.1,98.4C472.5,338.5,472.5,369.9,472.5,401.3z"/>
</g>
</svg>
