<?xml version="1.0" encoding="utf-8"?>
<!-- Generator: Adobe Illustrator 26.5.0, SVG Export Plug-In . SVG Version: 6.00 Build 0)  -->
<svg version="1.1" id="Layer_1" xmlns="http://www.w3.org/2000/svg" xmlns:xlink="http://www.w3.org/1999/xlink" x="0px" y="0px"
	 viewBox="0 0 512 512" style="enable-background:new 0 0 512 512;" xml:space="preserve">
<style type="text/css">
	.st0{fill:#C25035;}
</style>
<g>
	<path class="st0" d="M285,401.4c43.4,0.1,72.4-13,96.5-37c30.7-30.7,61.3-61.5,91.7-92.5c22.1-22.6,35.2-49.2,36.7-81.4
		c1.6-36-10.6-66.7-35.9-91.6c-40.8-40.2-101.7-46-150.2-15.1c-7.9,5-15.2,11.6-21.3,18.8c-6.9,8.1-4.6,19.1,3.7,25.8
		c9,7.2,17.4,6.7,28.1-2.7c18.4-16.2,39.5-23.2,64-21.1c29.8,2.6,61.3,28.3,68.7,57.4c7.8,31.2,0.7,58.4-22.1,81.3
		c-22.7,22.8-45.2,45.8-68,68.6c-10.7,10.7-21.2,21.7-32.7,31.5c-30.1,25.9-77.8,24.6-107.5-6c-28.2-29.1-32.7-73.1-6.4-106.5
		c3.2-4.1,6.6-8.2,9.3-12.6c6.5-10.7,0.9-24.4-11.1-27.9c-11.4-3.3-19.3,2.8-25.7,10.7c-36.3,44.7-40.9,102.2-6.1,149.8
		C220.7,383.7,253.4,400.4,285,401.4z M123,457.9c18,0.2,35-3.7,51.1-11.5c13-6.4,25.4-13.7,34.7-25.2c7.4-9.2,7-19.6-0.8-26.7
		c-8.1-7.4-19.7-7.5-27.9,0.2c-15.4,14.5-33.5,21.8-54.6,22.9c-36.8,1.9-72.5-24.7-80.8-60.7c-7-30.3,1.3-56.3,22.6-78.3
		c30.4-31.3,60.8-62.6,91.8-93.3c40.8-40.4,104.6-29.7,130,17.6c13.6,25.3,14.2,51.2,0.3,76.7c-4.3,8-10.7,14.8-15.7,22.5
		c-5.8,9.1-3.9,20.8,3.6,26.4c9.4,7,20.8,5.8,28.6-3.3c4-4.7,7.8-9.6,11.3-14.7c21.5-31.3,27.8-65.7,17.5-102.1
		c-13.7-48.3-59.7-86.2-112.3-87.7c-36.2-1.1-66.3,12.6-91.6,37.8C100,189,69.4,219.6,38.9,250.3c-15.8,16-27.8,34.6-33.1,56.5
		c-8.4,35.2-3.3,68.4,17.6,98.5C47.6,439.9,81.3,456.5,123,457.9z"/>
	<path class="st0" d="M285,401.4c-31.6-0.9-64.3-17.6-88.2-50.4c-34.8-47.6-30.3-105.1,6.1-149.8c6.4-7.9,14.3-14.1,25.7-10.7
		c12,3.5,17.6,17.2,11.1,27.9c-2.7,4.5-6.1,8.5-9.3,12.6c-26.4,33.4-21.8,77.4,6.4,106.5c29.7,30.6,77.4,31.9,107.5,6
		c11.5-9.8,22-20.8,32.7-31.5c22.7-22.8,45.3-45.8,68-68.6c22.8-22.9,29.9-50.1,22.1-81.3c-7.3-29.1-38.8-54.9-68.7-57.4
		c-24.6-2.1-45.6,4.8-64,21.1c-10.6,9.4-19.1,9.9-28.1,2.7c-8.3-6.7-10.6-17.7-3.7-25.8c6.1-7.1,13.4-13.7,21.3-18.8
		C372.4,53,433.2,58.8,474.1,99c25.3,24.9,37.5,55.6,35.9,91.6c-1.5,32.1-14.6,58.8-36.7,81.4c-30.4,31-60.9,61.9-91.7,92.5
		C357.4,388.4,328.4,401.4,285,401.4z"/>
	<path class="st0" d="M123,457.9c-41.7-1.4-75.4-18-99.5-52.6C2.6,375.2-2.5,342,5.9,306.8c5.2-21.9,17.2-40.5,33.1-56.5
		c30.5-30.7,61.1-61.2,91.7-91.7c25.3-25.2,55.4-38.8,91.6-37.8c52.6,1.5,98.6,39.4,112.3,87.7c10.3,36.4,4,70.8-17.5,102.1
		c-3.5,5.1-7.3,10-11.3,14.7c-7.7,9.1-19.2,10.3-28.6,3.3c-7.5-5.6-9.4-17.3-3.6-26.4c4.9-7.7,11.3-14.5,15.7-22.5
		c13.9-25.5,13.3-51.4-0.3-76.7c-25.3-47.3-89.2-57.9-130-17.6c-31,30.7-61.4,62-91.8,93.3c-21.3,22-29.6,48-22.6,78.3
		c8.3,36,44,62.6,80.8,60.7c21.1-1.1,39.2-8.4,54.6-22.9c8.3-7.8,19.9-7.7,27.9-0.2c7.7,7.1,8.2,17.5,0.8,26.7
		c-9.2,11.5-21.7,18.8-34.7,25.2C158,454.2,141,458.1,123,457.9z"/>
</g>
</svg>
