<?xml version="1.0" encoding="utf-8"?>
<!-- Generator: Adobe Illustrator 26.4.1, SVG Export Plug-In . SVG Version: 6.00 Build 0)  -->
<svg version="1.1" id="Layer_1" xmlns="http://www.w3.org/2000/svg" xmlns:xlink="http://www.w3.org/1999/xlink" x="0px" y="0px"
	 viewBox="0 0 512 512" style="enable-background:new 0 0 512 512;" xml:space="preserve">
<style type="text/css">
	.st0{fill:#D24527;}
</style>
<path class="st0" d="M83.2,168.8c-4.4,4.8-10.5,7.6-17.1,6.9c-6.5,1.1-12.8-1.5-17.5-6.9L9,129.1c-9.3-8.4-9.3-23.5,0-32.8
	c9.3-9.3,24.4-9.3,33.7,0l21.9,21.9l54.7-60.7c8.7-9.8,23.8-10.6,33.6-1.8c9.7,8.8,10.5,23.9,1.7,33.6L83.2,168.8z M83.2,327.5
	c-4.4,4.8-10.5,7.6-17.1,6.9c-6.5,1.1-12.8-1.5-17.5-6.9L9,287.9c-9.3-8.4-9.3-23.5,0-32.8c9.3-9.2,24.4-9.2,33.7,0l21.9,21.9
	l54.7-60.7c8.7-9.7,23.8-10.5,33.6-1.7c9.7,8.7,10.5,23.8,1.7,33.6L83.2,327.5z M216.3,136.9c-13.2,0-23.8-10.6-23.8-23.8
	c0-13.1,10.6-23.8,23.8-23.8h269.9c13.2,0,23.8,10.7,23.8,23.8c0,13.2-10.6,23.8-23.8,23.8H216.3z M192.5,271.9
	c0-13.2,10.6-23.8,23.8-23.8h269.9c13.2,0,23.8,10.6,23.8,23.8c0,13.2-10.6,23.8-23.8,23.8H216.3
	C203.1,295.7,192.5,285.1,192.5,271.9z M160.8,430.6c0-13.2,10.6-23.8,23.8-23.8h301.6c13.2,0,23.8,10.6,23.8,23.8
	s-10.6,23.8-23.8,23.8H184.6C171.4,454.4,160.8,443.8,160.8,430.6z M65.5,462.4c-17.5,0-31.8-14.2-31.8-31.8s14.2-31.8,31.8-31.8
	s31.8,14.2,31.8,31.8S83,462.4,65.5,462.4z"/>
</svg>
