<?xml version="1.0" encoding="utf-8"?>
<!-- Generator: Adobe Illustrator 26.5.0, SVG Export Plug-In . SVG Version: 6.00 Build 0)  -->
<svg version="1.1" id="Layer_1" xmlns="http://www.w3.org/2000/svg" xmlns:xlink="http://www.w3.org/1999/xlink" x="0px" y="0px"
	 viewBox="0 0 512 512" style="enable-background:new 0 0 512 512;" xml:space="preserve">
<style type="text/css">
	.st0{fill:#D24527;}
</style>
<g>
	<path class="st0" d="M255.2,6c102.6-0.5,187.1,81.8,187.8,184.7c0.2,38.7-14.8,73.9-32.8,107.5C373.9,366,330.3,428.9,282.8,489
		c-17.7,22.4-36.3,22.6-53.7,0.7C175.5,422.1,125.8,352,88.8,273.4C40.2,170,87.8,73.7,161.6,31.1C190.6,14.4,222.1,7.5,255.2,6z
		 M255.2,449.4c49.6-63.5,93.8-126.9,126.1-197.8c10.1-22.1,18.1-45.3,15.2-70.5C386.9,96.2,314.8,41.2,230.6,55
		C142.1,69.4,94.5,163.7,122.9,234.4c18.6,46.4,43.9,88.8,71.5,129.9C213.3,392.7,234.1,420,255.2,449.4z"/>
	<path class="st0" d="M222,226.1c-12.3-13.7-22.6-26.9-34.8-37.9c-5.7-5.1-15.8-9.2-22.9-8c-18.4,3.1-23.1,23.6-9.2,38.3
		c15.5,16.5,31.8,32.2,47.9,48.1c16.2,16,25.7,16,41.9-0.1c33.3-33.1,66.5-66.4,99.6-99.7c3.4-3.4,6.7-7,9-11.1c5-8.6,3-17-3.4-23.9
		c-6.3-6.8-14.3-10.7-23.3-6.2c-5.7,2.9-11,7-15.5,11.5C282.4,165.5,253.9,194.2,222,226.1z"/>
	<path class="st0" d="M222,226.1c31.9-31.9,60.4-60.6,89.1-89c4.5-4.5,9.9-8.6,15.5-11.5c9.1-4.6,17.1-0.7,23.3,6.2
		c6.4,7,8.4,15.3,3.4,23.9c-2.4,4.1-5.7,7.7-9,11.1c-33.1,33.3-66.3,66.5-99.6,99.7c-16.2,16.2-25.7,16.2-41.9,0.1
		c-16.1-15.9-32.4-31.6-47.9-48.1c-13.8-14.7-9.2-35.2,9.2-38.3c7.1-1.2,17.2,2.9,22.9,8C199.4,199.2,209.7,212.4,222,226.1z"/>
</g>
</svg>
