<?xml version="1.0" encoding="utf-8"?>
<!-- Generator: Adobe Illustrator 26.5.0, SVG Export Plug-In . SVG Version: 6.00 Build 0)  -->
<svg version="1.1" id="Layer_1" xmlns="http://www.w3.org/2000/svg" xmlns:xlink="http://www.w3.org/1999/xlink" x="0px" y="0px"
	 viewBox="0 0 512 512" style="enable-background:new 0 0 512 512;" xml:space="preserve">
<style type="text/css">
	.st0{fill:#D24527;}
</style>
<g>
	<path class="st0" d="M133.4,193.7c0-29-2.7-56.2,0.5-82.7C141.3,49.9,193.5,6.3,255.6,6c62.5-0.3,114,43.7,123,105.4
		c1.4,9.4,1.9,19,2.1,28.5c0.3,17.3,0.1,34.6,0.1,53.7c9.9,0,18.8-0.1,27.8,0c39.1,0.7,65.7,26.7,66,65.6
		c0.4,60.4,0.5,120.8,0,181.2c-0.3,38.3-26.7,65-65,65.2c-102.5,0.4-205.1,0.5-307.6,0c-37.6-0.2-64.1-26.8-64.4-64.4
		c-0.6-60.8-0.5-121.6,0-182.5c0.3-38.3,26.8-64.2,65.2-65.1C111.7,193.5,120.7,193.7,133.4,193.7z M256.4,459.6
		c49.5,0,99,0,148.5,0c18.9,0,23.5-4.4,23.5-22.6c0.1-58.2,0.1-116.4,0-174.6c0-17.7-4.7-22.5-22.3-22.5
		c-99.9-0.1-199.8-0.1-299.7,0c-18.4,0-22.8,4.6-22.9,23.2c-0.1,57.8-0.1,115.5,0,173.3c0,18.6,4.5,23.1,23,23.1
		C156.5,459.6,206.5,459.6,256.4,459.6z M333.8,193.2c0-24.9,1.9-48.9-0.4-72.4c-3.9-39.1-34.4-66.2-73.3-68.3
		c-37.4-2.1-72.3,21.2-79,57.9c-5,26.8-3.5,54.8-4.9,82.9C230.3,193.2,281.4,193.2,333.8,193.2z"/>
</g>
</svg>
