<?xml version="1.0" encoding="utf-8"?>
<!-- Generator: Adobe Illustrator 26.5.0, SVG Export Plug-In . SVG Version: 6.00 Build 0)  -->
<svg version="1.1" id="Layer_1" xmlns="http://www.w3.org/2000/svg" xmlns:xlink="http://www.w3.org/1999/xlink" x="0px" y="0px"
	 viewBox="0 0 512 512" style="enable-background:new 0 0 512 512;" xml:space="preserve">
<style type="text/css">
	.st0{fill:#D24527;}
</style>
<g>
	<path class="st0" d="M443.4,257.3c0,59.1,0,118.2,0,177.2c0,45.7-25.4,71.3-70.8,71.4c-77.8,0.1-155.5,0.1-233.3,0
		c-44.8,0-70.7-25.6-70.7-70.1c-0.1-119.9-0.1-239.8,0-359.7c0-44,25.8-70,69.4-70.1C216.7,6,295.3,6,374,6.1
		c43.6,0.1,69.3,26.1,69.4,70.1C443.5,136.6,443.4,197,443.4,257.3z M114.9,256c0,60.4,0,120.8,0,181.1c0,17.8,4.7,22.6,22.2,22.6
		c79.1,0.1,158.1,0.1,237.2,0c18.4,0,22.9-4.6,22.9-23.2c0-120.3,0-240.6,0-361c0-18.7-4.5-23.2-22.9-23.2
		c-78.6-0.1-157.2,0-235.9,0c-19.2,0-23.5,4.4-23.5,23.9C114.8,136.1,114.9,196.1,114.9,256z"/>
	<path class="st0" d="M255.6,177.4c-22.2,0-44.3,0.4-66.5-0.1c-20.6-0.5-32.9-17.2-23.2-32.7c4.1-6.5,14.3-12.6,21.9-12.8
		c45.1-1.2,90.3-0.8,135.5-0.5c15.3,0.1,25.3,9.5,25.7,22.3c0.5,13.2-9.8,23.2-25.8,23.6C300.8,177.8,278.2,177.4,255.6,177.4z"/>
	<path class="st0" d="M255.4,271.3c-22.2,0-44.3,0.4-66.5-0.1c-20.4-0.5-32.6-17.6-22.8-32.9c4.2-6.4,14.4-12.4,22.1-12.6
		c45.1-1.2,90.3-0.8,135.5-0.4c15.2,0.1,25.2,9.8,25.4,22.6c0.3,13.2-10.1,23-26.1,23.3C300.5,271.6,277.9,271.3,255.4,271.3z"/>
	<path class="st0" d="M209.5,365c-7.8,0-15.7,0.6-23.4-0.1c-13.9-1.2-23.6-11.4-23.2-23.4c0.4-11.8,9.5-21.5,23.1-22.2
		c15.6-0.8,31.3-0.9,46.9,0.1c13.5,0.8,22.5,10.9,22.6,22.6c0.1,11.7-9,21.4-22.4,22.8c-7.7,0.8-15.6,0.1-23.4,0.1
		C209.5,365,209.5,365,209.5,365z"/>
</g>
</svg>
