<?xml version="1.0" encoding="utf-8"?>
<!-- Generator: Adobe Illustrator 26.4.1, SVG Export Plug-In . SVG Version: 6.00 Build 0)  -->
<svg version="1.1" id="Layer_1" xmlns="http://www.w3.org/2000/svg" xmlns:xlink="http://www.w3.org/1999/xlink" x="0px" y="0px"
	 viewBox="0 0 512 512" style="enable-background:new 0 0 512 512;" xml:space="preserve">
<style type="text/css">
	.st0{fill:#D24527;}
</style>
<g>
	<path class="st0" d="M333.3,49.6c-14,14.3-26.4,27.8-39.8,40.3c-2.8,2.7-9.2,2.9-13.7,2.3C175,76.8,83.3,161.6,90.6,267.4
		c5.9,84.9,73.1,150.4,158.1,154.1c3.4,0.1,6.9,0.1,10.3,0.5c15,2,24.7,13.9,23.8,28.7c-0.9,14.8-12,25.7-27.3,25.3
		c-40.8-1-79.5-10.5-114.3-32.5C84.1,407.4,48.1,356,39,289c-11.9-87.2,17.9-159.4,89.4-211.3C190.7,32.5,259.6,25.6,333.3,49.6z"/>
	<path class="st0" d="M332.6,107.3c23.8,23,49,47.4,74.9,72.4c-3,3.2-5.4,6-8,8.6c-36.3,35.6-72.1,71.7-109.2,106.4
		c-10.5,9.8-24.2,17-37.5,22.9c-15.6,7-32.4,11.3-48.6,16.8c-8.9,3.1-17.4,3.2-24.4-4.1c-6.9-7.1-7.2-15.4-4.1-24.5
		c6.4-18.4,12-37,18.9-55.2c2.9-7.7,7-15.7,12.8-21.4C248.9,188.2,291,147.7,332.6,107.3z"/>
	<path class="st0" d="M460.6,178.2c26.8,67.1,18.6,138-32.3,181.2c-34.4,29.2-74,40.2-118.6,29.9c-19.5-4.5-28.8-16.3-25.5-31.7
		c3.1-14.4,20.8-24,38.1-20.8c38.7,7.3,74.4-10.3,91-45.5c8.6-18.2,10.1-37.6,6.5-57.2c-1.6-8.8,0-15,6.7-21.2
		C438,202.4,448.5,190.7,460.6,178.2z"/>
	<path class="st0" d="M352.3,84.4c12.3-12.7,23.2-25.5,35.7-36.6c15.8-14,37.1-13.5,53.2,0.4c7.8,6.7,15.1,14.1,21.9,21.8
		c15,17.2,14.6,39-0.8,56c-10.5,11.6-21.2,23-34.1,36.9c-14.1-15-26.2-28.1-38.6-40.9C377.5,109.5,365,97.2,352.3,84.4z"/>
</g>
</svg>
