<?xml version="1.0" encoding="utf-8"?>
<!-- Generator: Adobe Illustrator 26.4.1, SVG Export Plug-In . SVG Version: 6.00 Build 0)  -->
<svg version="1.1" id="Layer_1" xmlns="http://www.w3.org/2000/svg" xmlns:xlink="http://www.w3.org/1999/xlink" x="0px" y="0px"
	 viewBox="0 0 512 512" style="enable-background:new 0 0 512 512;" xml:space="preserve">
<style type="text/css">
	.st0{fill:#D24527;}
</style>
<path class="st0" d="M401.3,70.3c23.1-22.7,59.7-22.8,82.2-0.3l9.5,9.5c22.5,22.4,22.5,58.9,0.1,81.3l-140.9,141
	c-7.9,7.9-18,13.3-28.9,15.7l-68.3,13.6c-7,2.1-12.9,0.1-17.5-4.5c-4.6-4.6-6.5-11.2-5.2-17.5l14.4-68.4
	c2.2-10.8,6.9-21.4,15.3-28.6L401.3,70.3z M456.5,97.2c-7.5-7.5-19.7-7.5-27.2,0.1l-16.6,16.9l36.5,36.5l16.8-17.6
	c7.5-6.8,7.5-18.9,0-26.4L456.5,97.2z M284.3,248.6l-8.4,39.7l39.6-8.3c3.6-0.8,6.9-2.6,9.6-5.2l97-97.1l-36.3-36.3L289.4,239
	C286.8,241.7,285,245,284.3,248.6L284.3,248.6z M212.8,152.1c10.6,0,19.2,8.5,19.2,19.2s-8.5,19.2-19.2,19.2H59.5
	c-10.6,0-19.2,8.5-19.2,19.2v191.6c0,10.6,8.6,19.2,19.2,19.2h345c10.6,0,19.2-8.5,19.2-19.2V299.1c0-10.6,8.5-19.2,19.2-19.2
	s19.2,8.5,19.2,19.2v102.2c0,31.8-25.7,57.5-57.5,57.5h-345C27.7,458.8,2,433.1,2,401.3V209.6c0-31.8,25.7-57.5,57.5-57.5H212.8z
	 M78.7,305.5c0-14.1,11.4-25.6,25.6-25.6s25.6,11.4,25.6,25.6c0,14.1-11.4,25.6-25.6,25.6S78.7,319.6,78.7,305.5z M206.4,305.5
	c0,14.1-11.4,25.6-25.6,25.6s-25.6-11.4-25.6-25.6c0-14.1,11.4-25.6,25.6-25.6S206.4,291.3,206.4,305.5z"/>
</svg>
