<?xml version="1.0" encoding="utf-8"?>
<!-- Generator: Adobe Illustrator 26.4.1, SVG Export Plug-In . SVG Version: 6.00 Build 0)  -->
<svg version="1.1" id="Layer_1" xmlns="http://www.w3.org/2000/svg" xmlns:xlink="http://www.w3.org/1999/xlink" x="0px" y="0px"
	 viewBox="0 0 512 512" style="enable-background:new 0 0 512 512;" xml:space="preserve">
<style type="text/css">
	.st0{fill:#D24527;}
</style>
<path class="st0" d="M217.9,141.7c0,14,11.4,25.4,25.4,25.4c14,0,25.4-11.4,25.4-25.4s-11.4-25.4-25.4-25.4S217.9,127.7,217.9,141.7
	z M129,370.3V141.7H52.8C24.7,141.7,2,164.4,2,192.5v165.1c0,28.1,22.7,50.8,50.8,50.8h178.7c3.7-15.7,14.1-29,28.8-38.1H129z
	 M90.9,370.3H52.8c-7,0-12.7-5.7-12.7-12.7v-25.4h50.8V370.3z M90.9,294.1H40.1V256h50.8V294.1z M90.9,217.9H40.1v-25.4
	c0-7,5.7-12.7,12.7-12.7h38.1V217.9z M459.2,52.8h-254c-28,0-50.8,22.7-50.8,50.8V256c0,28.1,22.7,50.8,50.8,50.8h88.9v-59.3
	c0-16.4,10.5-31,26.1-36.1l81.6-27.2L372.4,141c-2.3-3.5-6.3-5.6-10.6-5.6c-4.2,0-8.2,2.1-10.6,5.7l-49.8,74.7l-17.7-24.3
	c-2.4-3.3-6.2-5.2-11-5.2c-4.1,0-7.9,1.9-10.3,5.2l-57.3,77.3c-7,0-12.7-5.7-12.7-12.7V103.6c0-7,5.7-12.7,12.7-12.7h254
	c7,0,12.7,5.7,12.7,12.7v57.2l13.3-4.4c4-1.3,8-2,12.1-2c4.4,0,8,1,12.7,2.3v-53.1C510,75.5,487.2,52.8,459.2,52.8z M493.3,180.4
	l-165.1,55c-5.2,1.7-8.7,6.6-8.7,12v136.8c-4-0.8-8.3-1.3-12.7-1.3c-28.1,0-50.8,17.1-50.8,38.1s22.7,38.1,50.8,38.1
	c28.1,0,50.8-17.1,50.8-38.1V306l114.3-38.1v65.6c-4-0.8-8.3-1.3-12.7-1.3c-28.1,0-50.8,17.1-50.8,38.1c0,21,22.7,38.1,50.8,38.1
	c28.1,0,50.8-17.1,50.8-38.1V192.5C510,183.8,501.5,177.7,493.3,180.4z"/>
</svg>
