<?xml version="1.0" encoding="utf-8"?>
<!-- Generator: Adobe Illustrator 26.5.0, SVG Export Plug-In . SVG Version: 6.00 Build 0)  -->
<svg version="1.1" id="Layer_1" xmlns="http://www.w3.org/2000/svg" xmlns:xlink="http://www.w3.org/1999/xlink" x="0px" y="0px"
	 viewBox="0 0 512 512" style="enable-background:new 0 0 512 512;" xml:space="preserve">
<style type="text/css">
	.st0{fill:#C14F34;}
</style>
<g>
	<path class="st0" d="M411.8,378.5c0,17.6,0.1,34.7,0,51.8c-0.1,16.5-4.1,31.9-15.2,44.5c-14.5,16.5-32.6,28-54.7,29.3
		c-25,1.5-50.2,0.9-75.3,0.3c-12.1-0.3-23.1-5.6-32.6-13.2c-3.3-2.7-5.5-2.7-8.8,0c-12.6,10.3-27.5,14.4-43.5,14.4
		c-33.6,0.2-67.2,0.1-100.8,0c-42.4-0.1-74-31.2-74.6-73.7C5.9,397.5,6,363,6.3,328.6c0.2-17.4,5.6-33.2,16.5-45.5
		c-4.8-10.3-9.5-19.6-13.5-29.3c-1.7-4.1-2.5-8.9-2.4-13.3C7,213.4,5,186,8.4,159.4c4.5-35.5,35.1-58.9,71.6-59.2
		c17.3-0.1,34.6,0,52.8,0c0-5.7-0.5-11.1,0.1-16.4c3.9-32.7,22.4-55.3,51.8-67.9c32.2-13.7,65.2-13.2,96.6,3.5
		C310.6,35,326,59.9,327,93.4c0.1,1.9,0,3.9,0,6.6c23.7,0.4,44.2,8.4,61.9,23.7c18.4,15.9,24.4,36.6,22.7,60.8c4.4,0,8.2-0.2,12,0
		c29.7,1.6,52.7,15.7,66.6,41.2c22.7,41.3,21.5,82.9-6.9,121.5c-15.6,21.3-37.9,31.7-64.7,31.3C416.6,378.5,414.7,378.5,411.8,378.5
		z M133.7,146.6c-18.4,0-36.9-0.1-55.3,0c-13.2,0.1-24.9,10.1-25.4,23.2c-0.7,22.5-0.6,45.1-0.1,67.6c0.2,8.4,4.7,14.7,13.2,17.5
		c8.7,2.8,15.7-0.2,21.6-6.5c1.6-1.7,3.1-3.6,4.6-5.5c12.3-14.6,32.8-15.6,46.5-2.2c16.7,16.2,19.9,48.6,8,70.9
		c-12.2,22.7-41,27.7-57.5,5.1c-6.9-9.5-14.7-11.9-23.6-8.7c-8.6,3-13,10-13.1,21.1c-0.1,34.3-0.1,68.5,0,102.8
		c0.1,16.5,11,27.3,27.4,27.4c22.1,0.1,44.2,0,66.3,0c12.4,0,24.7,0.1,37.1,0c8.1-0.1,14.9-2.7,18.6-10.6c3.7-7.9,1.9-15.3-2.9-22
		c-2-2.8-4.7-5.2-7.5-7.2c-15.5-11-17-33.1-2.2-47c18.2-16.9,40.1-18,62.7-10.7c10.5,3.4,19.4,9.7,24.5,20
		c5.4,10.7,4.1,30-12.5,41.8c-7.7,5.5-10,13.7-7.5,21.8c2.6,8.3,9,13.5,18.6,13.7c19.5,0.3,39.1,0.7,58.5-0.2
		c19.3-0.8,31.4-14.6,31.4-33.9c0-33.4,0-66.8,0-100.2c0-3,0.2-6.1,0.9-9c1.8-6.7,7-9.3,14-8c7.6,1.4,12.1,6.6,16.1,12.3
		c9.7,13.9,33.4,16.7,48.1,1.7c18.1-18.6,19.8-57.7,3-77.6c-11.1-13.1-26.2-17.3-40.6-9.7c-5.8,3.1-10.3,8.9-15.1,13.9
		c-5.2,5.5-13.1,8.5-18.5,6.3c-7.1-2.9-7.8-9.2-7.8-15.7c0-2.8,0-5.6,0-8.5c0-18.4,0.4-36.9-0.3-55.3c-0.2-5.4-2.2-11.9-5.8-15.8
		c-7.6-8.3-17.6-13.1-29.4-13c-18.9,0.2-37.7,0.1-56.6,0c-2.8,0-5.7-0.2-8.3-0.9c-6.7-1.9-9.3-7.1-8-14c1.5-7.7,6.9-12.3,12.3-17
		c15-12.8,15.7-33,1.8-46.9c-16.6-16.7-49-19.6-71.6-7.2c-21.3,11.7-28.2,40.4-4.8,57.8c3,2.2,5.9,5.3,7.7,8.6
		c5.6,10.2,0.8,18.7-10.8,19.7c-1.7,0.1-3.5,0.1-5.2,0.1C168.9,146.6,151.3,146.6,133.7,146.6z"/>
</g>
</svg>
