<?xml version="1.0" encoding="utf-8"?>
<!-- Generator: Adobe Illustrator 26.4.1, SVG Export Plug-In . SVG Version: 6.00 Build 0)  -->
<svg version="1.1" id="Layer_1" xmlns="http://www.w3.org/2000/svg" xmlns:xlink="http://www.w3.org/1999/xlink" x="0px" y="0px"
	 viewBox="0 0 512 512" style="enable-background:new 0 0 512 512;" xml:space="preserve">
<style type="text/css">
	.st0{fill:#D24527;}
</style>
<path class="st0" d="M205.5,319.6c0-12.8,1.1-7-67.7-144.3c-7-14-20.6-21.1-34.1-21.1s-27.1,7.1-34.2,21.1
	C0.4,313.9,2,307.2,2,319.6c0,35.1,45.5,63.6,101,63.6S205.5,354.6,205.5,319.6z M103.7,192.4l57.4,114.5H46.5L103.7,192.4z
	 M414.6,421.3H275.4V176.4c21.8-6.9,38.6-24.9,43.2-47.6h96.7c10.5,0,18.4-8.5,18.4-18.4c0-11.2-7.8-19.8-19.1-19.8H313.9
	c-9.1-22.5-31.6-38.2-57.5-38.2c-26,0-48.4,15.7-58.2,38.2H97.4C86.9,90.7,79,99.2,79,109s7.8,19.8,18.4,19.8H194
	c4.6,22.7,21.5,40.7,43.2,47.6v244.9H97.4c-10.5,0-18.4,8.5-18.4,18.4c0,9.8,7.8,19.8,18.4,19.8h317.2c10.5,0,18.4-8.5,18.4-18.4
	C433.7,429.8,425.9,421.3,414.6,421.3z M256.4,141.5c-14,0-24.7-11.4-24.7-25.4s11.4-25.4,24.7-25.4c13.3,0,24.7,11.4,24.7,25.4
	S270.3,141.5,256.4,141.5z M510,319.6c0-12.8,1.1-7-67.7-144.3c-6.3-14-20.6-21.1-34.1-21.1c-13.5,0-27.1,7.1-34.2,21.1
	c-68.4,138.5-66.8,131.9-66.8,144.3c0,35.1,45.5,63.6,101.7,63.6S510,354.6,510,319.6z M351,306.9c0,0,42.5-84.7,57.2-114.5
	l57.4,114.5H351z"/>
</svg>
