<?xml version="1.0" encoding="utf-8"?>
<!-- Generator: Adobe Illustrator 26.4.1, SVG Export Plug-In . SVG Version: 6.00 Build 0)  -->
<svg version="1.1" id="Layer_1" xmlns="http://www.w3.org/2000/svg" xmlns:xlink="http://www.w3.org/1999/xlink" x="0px" y="0px"
	 viewBox="0 0 512 512" style="enable-background:new 0 0 512 512;" xml:space="preserve">
<style type="text/css">
	.st0{fill:#D24527;}
</style>
<path class="st0" d="M326.9,86.5l56.1-21l21-56.1C405.7,5,410,2,414.8,2s9,3,10.7,7.4l21,56.1l56.1,21c4.5,1.7,7.4,6,7.4,10.7
	c0,4.8-3,9-7.4,10.7l-56.1,21l-21,56.1c-1.7,4.5-6,7.4-10.7,7.4s-9-3-10.7-7.4L383,129l-56.1-21c-5.4-1.7-7.4-6-7.4-10.7
	C319.5,92.5,321.6,88.2,326.9,86.5L326.9,86.5z M176.6,74.7c2.6-5.6,8.2-9.2,14.5-9.2c6.2,0,11.8,3.6,14.4,9.2l52.3,113.1
	l113.1,52.3c5.7,2.6,9.2,8.2,9.2,14.5c0,6.2-3.6,11.8-9.2,14.4l-113.1,52.3l-52.3,113.1c-2.6,5.7-8.2,9.2-14.4,9.2
	c-6.3,0-11.9-3.6-14.5-9.2l-52.3-113.1L11.2,269c-5.6-2.6-9.2-8.2-9.2-14.4c0-6.3,3.6-11.9,9.2-14.5l113.1-52.3L176.6,74.7z
	 M167.6,207.9c-4.8,10.2-13,18.5-23.2,23.2l-50.8,23.5l50.8,23.4c10.2,3.9,18.5,13,23.2,23.2l23.5,50.8l23.4-50.8
	c3.9-10.2,13-19.3,23.2-23.2l50.8-23.4l-50.8-23.5c-10.2-4.8-19.3-13-23.2-23.2l-23.4-50.8L167.6,207.9z M404,326.9
	c1.7-5.4,6-7.4,10.7-7.4s9,2.1,10.7,7.4l21,56.1l56.1,21c4.5,1.7,7.4,6,7.4,10.7s-3,9-7.4,10.7l-56.1,21l-21,56.1
	c-1.7,4.5-6,7.4-10.7,7.4s-9-3-10.7-7.4l-21-56.1l-56.1-21c-5.4-1.7-7.4-6-7.4-10.7s2.1-9,7.4-10.7l56.1-21L404,326.9z"/>
</svg>
