<?xml version="1.0" encoding="utf-8"?>
<!-- Generator: Adobe Illustrator 26.4.1, SVG Export Plug-In . SVG Version: 6.00 Build 0)  -->
<svg version="1.1" id="Layer_1" xmlns="http://www.w3.org/2000/svg" xmlns:xlink="http://www.w3.org/1999/xlink" x="0px" y="0px"
	 viewBox="0 0 512 512" style="enable-background:new 0 0 512 512;" xml:space="preserve">
<style type="text/css">
	.st0{fill:#D24527;}
</style>
<path class="st0" d="M509.9,104.9c-0.1-45.3-26.4-71.2-72-71.2c-60.5-0.1-121,0-181.5,0c-60.9,0-121.9,0-182.8,0
	C27.8,33.8,2.1,59.4,2,105C2,205.7,2,306.4,2,407c0,45.6,25.8,71.2,71.6,71.2c121.4,0,242.8,0.1,364.3,0c45.5,0,71.9-26,71.9-71.3
	C510,306.3,510,205.6,509.9,104.9z M144.2,430.7c-27.7,0-55.3,0.6-82.9-0.3c-9.2-0.3-12.5-8.6-12.5-17.5c0-14.6-0.1-29.1-0.1-43.7
	c0-48.5,0-97,0-145.5c0-4.8,0-9.5,0-15.2c33.1,0,63.8,0,95.5,0C144.2,282.5,144.2,355.9,144.2,430.7z M463.2,405.3
	c0,21.5-4.4,26-25.2,26c-77.3,0-154.6,0-231.9,0c-4.3,0-8.6-0.4-13.5-0.6c0-74.1,0-147.3,0-221.6c89.7,0,179.4,0,270,0
	c0.2,4.8,0.6,9.1,0.6,13.4C463.2,283.4,463.2,344.3,463.2,405.3z M463.2,159.9c-138.4,0-275.7,0-414,0c0-22-0.8-43.5,0.6-64.9
	c0.3-4.9,8-10.1,13.3-13.7c2.8-1.9,7.7-0.6,11.7-0.6c120.5,0,240.9,0,361.4,0c23,0,27,4,27,26.8
	C463.2,124.6,463.2,141.8,463.2,159.9z"/>
</svg>
