<?xml version="1.0" encoding="utf-8"?>
<!-- Generator: Adobe Illustrator 26.5.0, SVG Export Plug-In . SVG Version: 6.00 Build 0)  -->
<svg version="1.1" id="Layer_1" xmlns="http://www.w3.org/2000/svg" xmlns:xlink="http://www.w3.org/1999/xlink" x="0px" y="0px"
	 viewBox="0 0 512 512" style="enable-background:new 0 0 512 512;" xml:space="preserve">
<style type="text/css">
	.st0{fill:#C14F34;}
</style>
<g>
	<path class="st0" d="M148.1,5.7c26.5,0,53,0.2,79.5,0c23.4-0.2,42.9,7.9,59.5,24.6c65,65.4,130,130.8,195.6,195.5
		c31.5,31.1,30.6,79.7,0,109.7c-49.5,48.5-98.1,97.9-147.1,146.8c-26.2,26.1-60.6,31.4-91.4,13.9c-6.5-3.7-12.5-8.8-17.9-14.1
		C160.9,417,95.9,351.6,30.5,286.6C13.8,270,5.9,250.4,6,227c0.2-53.5,0-107,0.1-160.5c0-37.8,23.1-60.8,61-60.9
		C94.1,5.7,121.1,5.7,148.1,5.7z M60.7,60.3c0,3.5,0,6,0,8.5c0,52.7,0.1,105.4-0.1,158.1c0,8.9,3,15.6,9.1,21.7
		c65.1,64.9,130,130,195,194.9c11.3,11.3,21.1,11.4,32.3,0.2c49-48.9,98-97.9,146.9-146.9c11.3-11.3,11.4-21,0.1-32.3
		c-65.1-65.2-130.4-130.3-195.5-195.6c-5.9-5.9-12.5-8.8-21.1-8.7c-44.6,0.2-89.1,0.1-133.7,0.1C83.1,60.3,72.5,60.3,60.7,60.3z"/>
	<path class="st0" d="M134.5,170.2c-20.5,0.2-36.3-15.3-36.6-36c-0.4-20.7,15.8-36.9,36.5-36.8c20.6,0.1,36.2,15.7,36.2,36.3
		C170.6,154.4,155.1,170,134.5,170.2z"/>
</g>
</svg>
