<?xml version="1.0" encoding="utf-8"?>
<!-- Generator: Adobe Illustrator 26.4.1, SVG Export Plug-In . SVG Version: 6.00 Build 0)  -->
<svg version="1.1" id="Layer_1" xmlns="http://www.w3.org/2000/svg" xmlns:xlink="http://www.w3.org/1999/xlink" x="0px" y="0px"
	 viewBox="0 0 512 512" style="enable-background:new 0 0 512 512;" xml:space="preserve">
<style type="text/css">
	.st0{fill:#D24527;}
</style>
<path class="st0" d="M256,249.6v38.1c0,10.6,8.6,19,19,19s19.1-8.5,19.1-19v-19H364v127h-25.4c-10.5,0-19,8.5-19,19s8.6,19,19,19
	h88.9c10.5,0,19-8.5,19-19s-8.5-19-19-19H402v-127h69.9v19c0,10.5,8.5,19,19.1,19c10.5,0,19-8.5,19-19v-38.1c0-10.5-8.5-19-19-19
	H275C264.6,230.6,256,239.2,256,249.6z M2,97.2v63.5c0,10.6,8.5,19.1,19,19.1s19-8.5,19-19.1v-44.4h95.3v279.4H97.2
	c-10.5,0-19.1,8.6-19.1,19s8.6,19,19.1,19h114.3c10.6,0,19.1-8.5,19.1-19s-8.5-19-19.1-19h-38.1V116.3h95.3v44.4
	c0,10.6,8.6,19.1,19,19.1s19-8.5,19-19.1V97.2c0-10.5-8.5-19.1-19-19.1H21C10.5,78.2,2,86.7,2,97.2z"/>
</svg>
