<?xml version="1.0" encoding="utf-8"?>
<!-- Generator: Adobe Illustrator 26.4.1, SVG Export Plug-In . SVG Version: 6.00 Build 0)  -->
<svg version="1.1" id="Layer_1" xmlns="http://www.w3.org/2000/svg" xmlns:xlink="http://www.w3.org/1999/xlink" x="0px" y="0px"
	 viewBox="0 0 512 512" style="enable-background:new 0 0 512 512;" xml:space="preserve">
<style type="text/css">
	.st0{fill:#D24527;}
</style>
<path class="st0" d="M171.3,171.3c46.7,0,84.7,37.1,84.7,84.7c0,46.7-37.9,84.7-84.7,84.7c-47.5,0-84.7-37.9-84.7-84.7
	C86.7,208.5,123.8,171.3,171.3,171.3z M129,256c0,23.4,19,42.3,42.3,42.3s42.3-19,42.3-42.3s-19-42.3-42.3-42.3S129,232.6,129,256z
	 M340.7,425.3H171.3C77.8,425.3,2,349.5,2,256C2,161.7,77.8,86.7,171.3,86.7h169.3C434.2,86.7,510,161.7,510,256
	C510,349.5,434.2,425.3,340.7,425.3z M340.7,129H171.3c-70.1,0-127,56.9-127,127s56.9,127,127,127h169.3c70.1,0,127-56.9,127-127
	S410.8,129,340.7,129z"/>
</svg>
