<?xml version="1.0" encoding="utf-8"?>
<!-- Generator: Adobe Illustrator 26.5.0, SVG Export Plug-In . SVG Version: 6.00 Build 0)  -->
<svg version="1.1" id="Layer_1" xmlns="http://www.w3.org/2000/svg" xmlns:xlink="http://www.w3.org/1999/xlink" x="0px" y="0px"
	 viewBox="0 0 512 512" style="enable-background:new 0 0 512 512;" xml:space="preserve">
<style type="text/css">
	.st0{fill:#D24527;}
</style>
<g>
	<path class="st0" d="M279.3,381.3c0,32.7,0,64.4-0.1,96.2c0,3.9-0.5,7.8-1.3,11.6c-2.3,10.1-11.3,17.7-21.7,17.2
		c-9.9-0.5-19.2-4.6-22.2-17.4c-0.9-3.8-1.3-7.7-1.3-11.6c-0.1-29.3-0.1-58.7-0.1-88c0-2.4,0-4.7,0-7.9c-2.8,0-5.1,0-7.4,0
		c-36.1,0-72.2,0.1-108.2,0c-24-0.1-46.2-5.7-66.3-19.7C3,328.2-8.6,262.1,26.1,215.3c6.1-8.3,14.1-15.2,21.7-22.3
		c2.7-2.5,4-4.3,3-8.2c-9.8-40.7,12.3-80.2,47.7-99.3c15.7-8.5,32.6-13.3,50.7-10.6c3.8,0.6,5.8-0.6,7.4-4.3
		c12.2-28.6,33.9-47.8,62.7-58.1c34.4-12.3,67.5-8.1,98.1,12.6c17.3,11.7,30.8,26.7,39.2,46c1.5,3.5,3.7,4.2,7.1,3.8
		c45.7-5.5,96.8,33.9,99.8,85.5c0.5,8.5-0.6,17.3-2,25.8c-0.6,4-0.4,6.3,3,8.7c52.9,36.2,56.3,116.6,4.3,160.7
		c-21.6,18.3-46.4,25.7-73.9,25.7c-35.9,0.1-71.7,0-107.6,0C284.9,381.3,282.5,381.3,279.3,381.3z M279.3,260.6c0.7,0.3,1.3,0.6,2,1
		c4.9-5.2,9.7-10.6,14.8-15.6c3.4-3.3,6.9-6.7,10.9-9.2c12.3-7.6,27.3-2.4,32.8,11c4.5,10.9,0.4,19.6-7,27.1
		c-16.4,16.8-33.2,33.2-49.6,50c-2.2,2.2-3.1,5.7-5,9.5c3.1,0.2,4.2,0.3,5.3,0.3c38.3,0,76.5-0.1,114.8,0c21.6,0,38.5-9.3,51.4-26.2
		c16.4-21.4,12.5-59.6-8.4-72.8c-9.4-5.9-18.3-12.4-27.6-18.5c-4.3-2.8-8.7-5.4-13.2-8.1c4.3-8.5,8.3-16.3,12.2-24
		c13.8-27.2-6.5-59.5-36.4-63.5c-10.7-1.4-20.7,0.7-30.4,5.1c-7.8,3.5-15.7,6.9-23.9,10.6c-1.1-9-2.4-16.9-3.1-24.9
		C317,91,308.6,73.8,289.7,62.2c-39.4-24.3-90.7,0.5-95.1,42.8c-1.1,10.5-2.8,21-4.3,32.4c-8.8-3.9-17-7.7-25.3-11.3
		c-21.7-9.6-44.4-4.9-59.1,12.5c-10.9,12.9-16.5,33.8-0.9,56c3.8,5.4,7,11.3,10.6,17.1c-11.6,4.9-22.9,8.9-33.4,14.3
		c-23.4,11.9-35.2,41.3-27.1,66.2c8.5,26.3,30.7,42.4,59.8,42.5c37.6,0.2,75.2,0.1,112.8,0c1.7,0,3.3-0.3,4.5-0.4
		c0-15.5-0.2-30.4,0.1-45.4c0.1-5.5-1.9-9.2-5.7-13c-16.3-16-32.5-32.1-48.4-48.4c-12.6-12.8-10.4-31.4,4.1-38.5
		c9.8-4.8,19.5-2.9,29.2,5.9c6.8,6.2,13.6,12.5,21.6,19.8c0-3.7,0-5.8,0-7.9c0-17-0.2-33.9,0.1-50.9c0.3-20.3,18-31.2,35.1-22
		c9.2,5,11.4,13.8,11.4,23.3c0.2,32.2,0.1,64.3,0.1,96.5C279.3,256,279.3,258.3,279.3,260.6z"/>
</g>
</svg>
