<?xml version="1.0" encoding="utf-8"?>
<!-- Generator: Adobe Illustrator 26.4.1, SVG Export Plug-In . SVG Version: 6.00 Build 0)  -->
<svg version="1.1" id="Layer_1" xmlns="http://www.w3.org/2000/svg" xmlns:xlink="http://www.w3.org/1999/xlink" x="0px" y="0px"
	 viewBox="0 0 512 512" style="enable-background:new 0 0 512 512;" xml:space="preserve">
<style type="text/css">
	.st0{fill:#D24527;}
</style>
<path class="st0" d="M241.1,80.6c-3.3-1.5-6.9-2.3-10.4-2.3c-6.1,0-12.1,2.3-16.9,6.5l-107.1,95.1H40.1c-21,0-38.1,17-38.1,38.1
	v76.1c0,21,17.1,38.1,38.1,38.1h66.5l107.1,95.1c4.7,4.2,10.8,6.4,16.9,6.4c3.5,0,7.1-0.7,10.4-2.3c9.2-4.1,15-13.1,15-23.1V103.7
	C256,93.7,250.2,84.7,241.1,80.6z M217.9,379.9L121.1,294h-81V218h81l96.8-85.9V379.9z M329.5,197.3c-3.5-2.9-7.8-4.3-12.1-4.3
	c-5.5,0-11,2.4-14.7,7c-6.7,8.1-5.5,20.1,2.7,26.8c8.9,7.3,14.1,18,14.1,28.5c0,11.2-5.2,21.9-14.1,29.2c-8.2,6.7-9.4,18.7-2.7,26.8
	c3.7,4.6,9.2,7,14.7,7c4.2,0,8.5-1.4,12.1-4.3c17.9-13.9,28.1-35.3,28.1-58.7S347.4,211.9,329.5,197.3z M377.5,138.7
	c-3.5-2.9-7.8-4.3-12.1-4.3c-5.5,0-11,2.4-14.7,6.9c-6.7,8.1-5.5,20.1,2.7,26.8c26.9,21.3,42.3,54,42.3,87.2
	c0,33.8-15.4,65.2-42.3,87.9c-8.1,6.7-9.3,18.7-2.7,26.8c3.8,4.6,9.2,7,14.7,7c4.3,0,8.5-1.4,12.1-4.3
	c35.8-28.6,56.3-71.3,56.3-117.3S413.3,167.9,377.5,138.7z M426.2,79.3c-3.6-2.9-7.9-4.3-12.1-4.3c-5.5,0-11,2.4-14.8,6.9
	c-6.7,8.1-5.5,20.1,2.7,26.8c44.4,36.4,69.9,90,69.9,146.5S446.4,366.2,402,402.5c-8.1,6.7-9.3,18.7-2.7,26.8
	c3.7,5.3,9.2,7.7,14.8,7.7c4.3,0,8.5-1.4,12.1-4.3c53.2-43.6,83.8-108,83.8-177.4C510,187.3,479.4,122.9,426.2,79.3z"/>
</svg>
