<?xml version="1.0" encoding="utf-8"?>
<!-- Generator: Adobe Illustrator 27.7.0, SVG Export Plug-In . SVG Version: 6.00 Build 0)  -->
<svg version="1.1" id="Layer_1" xmlns="http://www.w3.org/2000/svg" xmlns:xlink="http://www.w3.org/1999/xlink" x="0px" y="0px"
	 viewBox="0 0 512 512" style="enable-background:new 0 0 512 512;" xml:space="preserve">
<style type="text/css">
	.st0{fill:#147580;}
</style>
<path class="st0" d="M193.8,256c27.5,0,49.8-22.3,49.8-49.8s-22.3-49.8-49.8-49.8S144,178.7,144,206.2
	C144,233.7,166.3,256,193.8,256z M392.9,237.3h-74.7c-10.3,0-18.7,8.4-18.7,18.7c0,10.3,8.4,18.7,18.7,18.7h74.7
	c10.3,0,18.7-8.4,18.7-18.7C411.6,245.7,403.2,237.3,392.9,237.3z M218.7,280.9h-49.8c-34.4,0-62.2,27.8-62.2,62.2
	c0,6.8,5.6,12.4,12.4,12.4h149.3c6.9,0,12.4-5.6,12.4-12.4C280.9,308.7,253,280.9,218.7,280.9z M392.9,175.1h-74.7
	c-10.3,0-18.7,8.4-18.7,18.7c0,10.3,8.4,18.7,18.7,18.7h74.7c10.3,0,18.7-8.4,18.7-18.7C411.6,183.5,403.2,175.1,392.9,175.1z
	 M430.2,81.8H81.8c-27.5,0-49.8,22.3-49.8,49.8v248.9c0,27.5,22.3,49.8,49.8,49.8h348.4c27.5,0,49.8-22.3,49.8-49.8V131.6
	C480,104.1,457.7,81.8,430.2,81.8z M442.7,380.4c0,6.9-5.6,12.4-12.4,12.4H81.8c-6.9,0-12.4-5.6-12.4-12.4V131.6
	c0-6.9,5.6-12.4,12.4-12.4h348.4c6.9,0,12.4,5.6,12.4,12.4V380.4z"/>
</svg>
