<?xml version="1.0" encoding="utf-8"?>
<!-- Generator: Adobe Illustrator 26.5.0, SVG Export Plug-In . SVG Version: 6.00 Build 0)  -->
<svg version="1.1" id="Layer_1" xmlns="http://www.w3.org/2000/svg" xmlns:xlink="http://www.w3.org/1999/xlink" x="0px" y="0px"
	 viewBox="0 0 512 512" style="enable-background:new 0 0 512 512;" xml:space="preserve">
<style type="text/css">
	.st0{fill:#D24527;}
</style>
<g>
	<path class="st0" d="M267.8,324c1.4,3.3,2.4,5.6,3.5,7.9c19.3,41.6,38.6,83.2,57.9,124.8c6.4,13.8,4.3,26.1-5.5,33.6
		c-14.4,10.9-32.4,6-40.7-11.6c-12.6-26.7-24.9-53.4-37.3-80.2c-8.1-17.4-16.2-34.9-24.8-53.3c-4,4.6-7.6,8.7-11.1,12.8
		c-26.7,30.6-53.5,61.2-80.2,92c-7.7,8.9-16.6,13.5-28.3,9.4c-11.4-4-15.2-13.5-16.3-24.6c-0.1-1.4,0-2.9,0-4.3
		c0-128-0.1-255.9,0.3-383.9c0-7.2,2.2-15.4,6.2-21.3c8-11.6,23.9-12.3,35.3-2.5c15.7,13.5,31.1,27.3,46.6,41
		c80.9,71.8,161.9,143.6,242.8,215.4c6.1,5.4,10.8,11.3,10.9,19.9c0.1,14.9-10.2,24.6-27,24.7c-41.1,0.1-82.3,0-123.4,0
		C274.1,324,271.5,324,267.8,324z M136.2,362.2c0.5,0.2,0.9,0.5,1.4,0.7c0.9-1.1,1.7-2.3,2.6-3.3c18.7-21.5,37.7-42.8,56-64.7
		c12.7-15.1,28.2-22.3,47.9-22c26.1,0.4,52.3,0.1,78.5,0.1c2.3,0,4.5,0,9,0c-65.9-58.7-130.1-115.8-195.5-174
		C136.2,188,136.2,275.1,136.2,362.2z"/>
</g>
</svg>
