<?xml version="1.0" encoding="utf-8"?>
<!-- Generator: Adobe Illustrator 26.4.1, SVG Export Plug-In . SVG Version: 6.00 Build 0)  -->
<svg version="1.1" id="Layer_1" xmlns="http://www.w3.org/2000/svg" xmlns:xlink="http://www.w3.org/1999/xlink" x="0px" y="0px"
	 viewBox="0 0 512 512" style="enable-background:new 0 0 512 512;" xml:space="preserve">
<style type="text/css">
	.st0{fill:#D24527;}
</style>
<path class="st0" d="M476,256H316c-17.7,0-32,14.3-32,32v160c0,17.7,14.3,32,32,32h160c17.7,0,32-14.3,32-32V288
	C508,270.3,493.7,256,476,256z M460,432H332V304h128V432z M316,192h96c17.6,0,32-14.4,32-32V64c0-17.6-14.4-32-32-32h-96
	c-17.6,0-32,14.4-32,32v96C284,177.6,298.4,192,316,192z M332,80h64v64h-64V80z M141.6,39.4c-9.1-9.8-26.2-9.8-35.2,0l-96,104
	c-9,9.8-8.4,25,1.3,33.9c4.6,4.4,10.5,6.5,16.3,6.5c6.5,0,12.9-2.6,17.6-7.7l54.4-59V456c0,13.2,10.8,24,24,24s24-10.8,24-24V117.1
	l54.4,59c8.9,9.8,24.1,10.4,33.9,1.3c9.7-9,10.3-24.2,1.3-34L141.6,39.4z"/>
</svg>
