<?xml version="1.0" encoding="utf-8"?>
<!-- Generator: Adobe Illustrator 26.5.0, SVG Export Plug-In . SVG Version: 6.00 Build 0)  -->
<svg version="1.1" id="Layer_1" xmlns="http://www.w3.org/2000/svg" xmlns:xlink="http://www.w3.org/1999/xlink" x="0px" y="0px"
	 viewBox="0 0 512 512" style="enable-background:new 0 0 512 512;" xml:space="preserve">
<style type="text/css">
	.st0{fill:#D24527;}
</style>
<g>
	<path class="st0" d="M394,330.3c1.7-34,0.9-68.5,5.7-102.2c4.5-31.2,26-51.8,55.7-62.6c7.4-2.7,10.4-6,9.9-14
		c-0.7-11-0.2-22.2-0.2-33.9c-139.7,0-278.1,0-418.1,0c0,13.4-0.4,26.4,0.3,39.4c0.1,2.6,4.2,6,7.2,7.1c41.4,16.5,61.8,46.2,62,90.8
		c0.1,25.4,0,50.8,0,75.2c-13.5-1.7-26.3-3.3-40.9-5.1c0-13.4,0-28.6,0-43.9c0-11.2,0.3-22.4-0.3-33.6c-1.4-25.8-17.4-43-42.9-46.7
		c-21.6-3.2-26.2-8.5-26.3-30c-0.1-20.9-0.2-41.7,0-62.6C6.3,85.4,16,75.8,38.8,75.8c145.2,0,290.4,0,435.6,0c22,0,31.5,9.7,31.6,32
		c0.1,22,0.1,44,0,66c-0.1,18.2-5.6,24.4-23.2,26.7c-29.6,3.9-45.8,22-46.2,52.4c-0.3,24.3-0.1,48.6-0.1,72.2
		C422.9,326.8,410,328.3,394,330.3z"/>
	<path class="st0" d="M7.4,414.2c0.1-10.6,5.8-15.5,13.6-19.5c18.4-9.4,36.8-19,54.7-29.3c9.5-5.5,17.9-6,26.9,0.4
		c7.2,5.2,14.4,10.5,21.9,15.1c36.6,22.7,71.9,17.9,106-5.8c0.6-0.4,1.2-0.9,1.9-1.4c23.2-17.2,23.2-17.2,47-0.3
		c42.1,30.1,80.9,29.6,122.5-1.6c20.3-15.2,22.1-14.4,43.4,0.3c12.5,8.6,27.3,13.8,41,20.8c5.4,2.8,11.6,5.1,15.4,9.5
		c5.8,6.6,5.7,15.1,0.6,22.6c-5.7,8.3-14.1,11.4-23.3,7.8c-16.5-6.4-32.8-13.3-48.6-21.1c-5.9-2.9-9.8-3.8-15.5,0
		c-49.7,32.7-99.8,32-149.8,0.9c-6.8-4.3-11.5-4.5-18.5,0c-49.1,31.4-98.6,31.4-147.7,0.1c-6.9-4.4-11.3-3.8-18.4-0.1
		c-15.3,8-31.3,14.9-47.6,20.4C18.8,437.8,6.9,427.3,7.4,414.2z"/>
	<path class="st0" d="M352.3,352.4c-4.3,0.5-7.7,1.1-11.1,1.2c-24.9,0.7-29.1-3.4-29.2-27.7c-0.1-24.3,0.5-48.6-0.5-72.9
		c-1.1-26.3-20.4-46.9-46.5-51.8c-23.3-4.3-49,8.7-58.8,31.5c-3.9,8.9-5.7,19.3-6,29.1c-0.8,25.4-0.7,50.9,0,76.4
		c0.2,8.4-2.8,12-10.4,13c-1.5,0.2-3,0.8-4.5,1.1c-23.1,5-26.4,2.6-26.2-20.3c0.3-28.9-0.6-57.9,1.9-86.7
		c3.3-39,25.6-65.9,61.8-79.2c39.5-14.5,75.1-5.5,104.6,25c15,15.6,24.1,34.5,24.8,55.9C353.2,281.7,352.3,316.4,352.3,352.4z"/>
</g>
</svg>
