<?xml version="1.0" encoding="utf-8"?>
<!-- Generator: Adobe Illustrator 27.5.0, SVG Export Plug-In . SVG Version: 6.00 Build 0)  -->
<svg version="1.1" id="Layer_1" xmlns="http://www.w3.org/2000/svg" xmlns:xlink="http://www.w3.org/1999/xlink" x="0px" y="0px"
	 viewBox="0 0 512 512" style="enable-background:new 0 0 512 512;" xml:space="preserve">
<style type="text/css">
	.st0{fill:#C03C0C;}
</style>
<path class="st0" d="M189.9,79.8h132.2V43c0-12.2,9.8-22,22-22s22,9.9,22,22v36.7h36.7c32.4,0,58.8,26.3,58.8,58.8v293.8
	c0,32.4-26.3,58.8-58.8,58.8H109.1c-32.5,0-58.8-26.3-58.8-58.8V138.5c0-32.5,26.3-58.8,58.8-58.8h36.7V43c0-12.2,9.8-22,22-22
	s22,9.9,22,22V79.8z M94.4,248.7h73.4v-51.4H94.4V248.7z M94.4,292.7v58.8h73.4v-58.8H94.4z M211.9,292.7v58.8h88.1v-58.8H211.9z
	 M344.1,292.7v58.8h73.4v-58.8H344.1z M417.6,197.2h-73.4v51.4h73.4V197.2z M417.6,395.5h-73.4v51.4h58.8c8.1,0,14.7-6.6,14.7-14.7
	V395.5z M300.1,395.5h-88.1v51.4h88.1V395.5z M167.9,395.5H94.4v36.7c0,8.1,6.6,14.7,14.7,14.7h58.8V395.5z M300.1,197.2h-88.1v51.4
	h88.1V197.2z"/>
</svg>
