<?xml version="1.0" encoding="utf-8"?>
<!-- Generator: Adobe Illustrator 27.7.0, SVG Export Plug-In . SVG Version: 6.00 Build 0)  -->
<svg version="1.1" id="Layer_1" xmlns="http://www.w3.org/2000/svg" xmlns:xlink="http://www.w3.org/1999/xlink" x="0px" y="0px"
	 viewBox="0 0 512 512" style="enable-background:new 0 0 512 512;" xml:space="preserve">
<style type="text/css">
	.st0{fill:#147580;}
</style>
<path class="st0" d="M249.1,389.1c-7.4,8.9-20.7,8.9-29,0l-56-56c-8.1-7.4-8.1-20.7,0-29c8.2-8.1,21.5-8.1,29,0l41.9,41.2l83.1-83.2
	c8.2-8.1,21.5-8.1,29,0c8.9,8.2,8.9,21.5,0,29L249.1,389.1z M172,32c11.6,0,21,9.4,21,21v35h126V53c0-11.6,9.4-21,21-21
	s21,9.4,21,21v35h35c30.9,0,56,25.1,56,56v280c0,30.9-25.1,56-56,56H116c-30.9,0-56-25.1-56-56V144c0-30.9,25.1-56,56-56h35V53
	C151,41.4,160.4,32,172,32z M410,200H102v224c0,7.7,6.3,14,14,14h280c7.7,0,14-6.3,14-14V200z"/>
</svg>
