<?xml version="1.0" encoding="utf-8"?>
<!-- Generator: Adobe Illustrator 26.4.1, SVG Export Plug-In . SVG Version: 6.00 Build 0)  -->
<svg version="1.1" id="Layer_1" xmlns="http://www.w3.org/2000/svg" xmlns:xlink="http://www.w3.org/1999/xlink" x="0px" y="0px"
	 viewBox="0 0 512 512" style="enable-background:new 0 0 512 512;" xml:space="preserve">
<style type="text/css">
	.st0{fill:#1D7A85;}
</style>
<g>
	<path class="st0" d="M187.3,347.8c3.1-4.5,5.7-9.6,9.5-13.4C275.8,255.1,355,176,434.2,96.8c3.2-3.2,6.2-6.4,9.6-9.4
		c16.2-14.1,38.7-14.1,52.5-0.2c13.1,13.2,13.2,37.7-0.8,52.6c-15.3,16.2-31.3,31.7-47.1,47.4C372,263.7,295.6,340,219.2,416.4
		c-24.9,24.8-44.1,25-68.6,0.5c-43.1-43.1-86.4-86-129-129.5C15,280.6,9.2,271.5,7,262.5C3,245.4,11,231,24.9,223.9
		c15.6-7.9,32.1-5.2,46,8.8c33.9,34.1,67.4,68.5,100.9,102.9c3.4,3.5,5.9,8,8.8,12C182.9,347.7,185.1,347.7,187.3,347.8z"/>
</g>
</svg>
