<?xml version="1.0" encoding="utf-8"?>
<!-- Generator: Adobe Illustrator 26.5.0, SVG Export Plug-In . SVG Version: 6.00 Build 0)  -->
<svg version="1.1" id="Layer_1" xmlns="http://www.w3.org/2000/svg" xmlns:xlink="http://www.w3.org/1999/xlink" x="0px" y="0px"
	 viewBox="0 0 512 512" style="enable-background:new 0 0 512 512;" xml:space="preserve">
<style type="text/css">
	.st0{fill:#D24527;}
</style>
<g>
	<path class="st0" d="M506,256.2c-1.1,137.9-109.5,250-250.3,249.7C114.9,505.7,5.8,395,6,255.8C6.2,115,116.8,6,256.1,6.1
		C397.7,6.2,505.2,118.9,506,256.2z M459.9,255.8c-0.2-113-91.6-204.3-204.4-204C143.3,52.2,52.1,143.2,51.5,255.5
		c-0.6,112,91.7,204.5,204.3,204.6C368.6,460.3,460,368.7,459.9,255.8z"/>
	<path class="st0" d="M278.7,334.8c5.9,0,10.2-0.3,14.4,0c15.2,1.2,24.8,10.4,24.6,23.4c-0.2,13-9.9,21.8-25.2,22.8
		c-5.2,0.3-10.4,0.1-15.7,0.1c-17.8,0-35.7,0.1-53.5,0c-18.5-0.2-28.9-8.3-29.2-22.7c-0.3-14.4,9.9-22.9,28.4-23.6
		c2.6-0.1,5.2-0.2,9-0.4c0-20.6,0-41.2,0-62.2c-3-0.4-6-0.7-8.9-1.3c-13.3-2.9-20.8-11.4-20.6-23c0.2-12.2,8.8-21.3,22.6-22.5
		c10.4-0.8,20.9-0.9,31.3,0c14.9,1.3,22.5,9.8,22.7,25.1c0.4,23,0.1,46.1,0.1,69.1C278.7,324.3,278.7,328.9,278.7,334.8z"/>
	<path class="st0" d="M286.5,161.9c0,18.3-13.1,31.3-31.2,30.9C238,192.5,225,179.3,225,162c0-17.8,13.7-31.3,31.5-31
		C274.1,131.3,286.5,144.1,286.5,161.9z"/>
</g>
</svg>
