<?xml version="1.0" encoding="utf-8"?>
<!-- Generator: Adobe Illustrator 26.4.1, SVG Export Plug-In . SVG Version: 6.00 Build 0)  -->
<svg version="1.1" id="Layer_1" xmlns="http://www.w3.org/2000/svg" xmlns:xlink="http://www.w3.org/1999/xlink" x="0px" y="0px"
	 viewBox="0 0 512 512" style="enable-background:new 0 0 512 512;" xml:space="preserve">
<style type="text/css">
	.st0{fill:#D24527;}
</style>
<path class="st0" d="M248.4,143.3c-6.9-6.4-17.1-8.1-25.7-4.4c-8.6,3.8-14.3,12.4-14.3,21.8v190.5c0,9.5,5.6,18,14.3,21.8
	c8.7,3.8,18.8,2.1,25.7-4.3l103.2-95.2c4.9-4.5,7.6-10.8,7.6-17.5s-2.8-13-7.7-17.5L248.4,143.3z M256,2C115.7,2,2,115.7,2,256
	s113.7,254,254,254s254-113.7,254-254S396.3,2,256,2z M256,462.4c-113.8,0-206.4-92.6-206.4-206.4S142.2,49.6,256,49.6
	S462.4,142.2,462.4,256S369.8,462.4,256,462.4z"/>
</svg>
