<?xml version="1.0" encoding="utf-8"?>
<!-- Generator: Adobe Illustrator 26.5.0, SVG Export Plug-In . SVG Version: 6.00 Build 0)  -->
<svg version="1.1" id="Layer_1" xmlns="http://www.w3.org/2000/svg" xmlns:xlink="http://www.w3.org/1999/xlink" x="0px" y="0px"
	 viewBox="0 0 512 512" style="enable-background:new 0 0 512 512;" xml:space="preserve">
<style type="text/css">
	.st0{fill:#C14F34;}
</style>
<g>
	<path class="st0" d="M256.9,506.2C120,505.4,6.7,398.6,6,256.5C5.4,119.1,113.9,6.4,255.5,5.8c137.1-0.5,249.7,107.6,250.5,249
		C506.8,391.5,399,503.9,256.9,506.2z M256,52.1C142.1,53.6,52.5,142,52.6,256c0.1,113.4,89,203,203.1,203.2
		c113.7,0.2,203.6-89.1,203.7-203.2C459.5,142,369.9,53.6,256,52.1z"/>
	<path class="st0" d="M249.5,177.4c-20.1,0-39.2,0.1-58.3-0.1c-3.9,0-7.8-0.4-11.6-1.3c-10.5-2.4-17.7-12-17.3-22.4
		c0.4-10.6,7.3-19.3,17.6-21.6c3.2-0.7,6.4-1.2,9.6-1.2c39.1-0.1,78.3-0.1,117.4,0c15,0,24.4,7.1,26.2,20c1.3,9.4-2.6,16.9-9.4,23.1
		c-15.5,14.2-31,28.5-47.3,43.5c6.1,1.6,11.4,2.8,16.6,4.5c33.7,11.4,56.2,41.3,56.5,76.6c0.4,43.9-35.2,78.8-72.3,81.2
		c-18.8,1.3-37.8,1.8-56.7,0.9c-26.8-1.3-45.6-15.2-55.9-40.1c-5.6-13.6-1.1-25.5,11.1-31.3c11.3-5.4,24.5-1.1,30.7,11.5
		c5.1,10.5,12.6,14.4,23.9,13.9c12.4-0.6,24.8,0,37.2-0.2c19.3-0.3,35.5-16.5,35.5-35.3c0-18.8-16.1-35.2-35.3-35.4
		c-15.7-0.2-31.3,0-47-0.1c-11,0-20.2-3.5-24.9-14.3c-4.1-9.5-0.9-20.5,8.1-28.8c14.7-13.6,29.4-27.2,44-40.8
		C248.3,179.3,248.5,178.9,249.5,177.4z"/>
</g>
</svg>
