<?xml version="1.0" encoding="utf-8"?>
<!-- Generator: Adobe Illustrator 26.5.0, SVG Export Plug-In . SVG Version: 6.00 Build 0)  -->
<svg version="1.1" id="Layer_1" xmlns="http://www.w3.org/2000/svg" xmlns:xlink="http://www.w3.org/1999/xlink" x="0px" y="0px"
	 viewBox="0 0 512 512" style="enable-background:new 0 0 512 512;" xml:space="preserve">
<style type="text/css">
	.st0{fill:#D24527;}
</style>
<path class="st0" d="M496.5,162L268,9.6c-7.8-4.8-16.1-4.8-24,0L15.5,162C9.6,165.9,6,172.8,6,179.8v152.3c0,7,3.6,14,9.5,17.9
	L244,502.4c7.8,4.8,16.1,4.8,24,0L496.5,350c5.9-3.9,9.5-10.9,9.5-17.9V179.8C506,172.8,502.4,165.9,496.5,162L496.5,162z
	 M277.5,67.7l168.2,112.2L370.7,230l-93.2-62.2V67.7z M234.5,67.7v100.2L141.3,230l-75.1-50.2L234.5,67.7z M49,220l53.9,36L49,292
	V220L49,220z M234.5,444.3L66.3,332.2l75.1-50.2l93.2,62.2V444.3z M256,306.8L180.1,256l75.9-50.8l75.9,50.8L256,306.8z
	 M277.5,444.3V344.2l93.2-62.2l75.1,50.2L277.5,444.3z M463,292l-53.9-36l53.9-36V292L463,292z"/>
</svg>
