<?xml version="1.0" encoding="utf-8"?>
<!-- Generator: Adobe Illustrator 27.7.0, SVG Export Plug-In . SVG Version: 6.00 Build 0)  -->
<svg version="1.1" id="Layer_1" xmlns="http://www.w3.org/2000/svg" xmlns:xlink="http://www.w3.org/1999/xlink" x="0px" y="0px"
	 viewBox="0 0 512 512" style="enable-background:new 0 0 512 512;" xml:space="preserve">
<style type="text/css">
	.st0{fill:#147580;}
</style>
<path class="st0" d="M157.7,214.2c-15.5,0-28.1,12.5-28.1,27.3c0,16.3,12.6,28.9,28.1,28.9s27.3-12.5,27.3-28.1
	S173.3,214.2,157.7,214.2z M256,213.5c-15.6,0-27.3,12.5-27.3,28.1s12.5,27.3,27.3,27.3c14.8,0,27.3-12.5,27.3-27.3
	S271.6,213.5,256,213.5z M354.4,214.2c-15.6,0-27.3,12.5-27.3,28.1s12.5,28.1,27.3,28.1c15.6,0,28.1-12.5,28.1-28.1
	C382.4,226.7,370,214.2,354.4,214.2z M256,58.9c-124.2,0-224,81.8-224,182.6c0,41.8,17.5,80.1,46.5,110.9
	c-13.1,34.7-40.3,64-40.7,64.3c-5.8,6.1-7.4,15.1-4.1,22.8c2.6,8.4,10.2,13.5,18.6,13.5c54,0,95.8-22.6,122.1-40.6
	c25.3,7.9,52.8,12.5,81.6,12.5c124.2,0,224-81.8,224-181.8S380.2,58.9,256,58.9z M256,382.8c-23.5,0-46.6-3.6-68.8-10.6l-20-6.3
	L150.1,378c-12.5,8.9-29.7,18.8-50.5,25.5c6.5-10.6,12.6-22.6,17.4-35.3l9.3-24.6l-18.1-19.2c-15.8-16.9-34.9-44.9-34.9-82
	c0-77.5,81.9-140.5,181.8-140.5s181.8,63,181.8,140.5S356.8,382.8,256,382.8z"/>
</svg>
