<?xml version="1.0" encoding="utf-8"?>
<!-- Generator: Adobe Illustrator 26.4.1, SVG Export Plug-In . SVG Version: 6.00 Build 0)  -->
<svg version="1.1" id="Layer_1" xmlns="http://www.w3.org/2000/svg" xmlns:xlink="http://www.w3.org/1999/xlink" x="0px" y="0px"
	 viewBox="0 0 512 512" style="enable-background:new 0 0 512 512;" xml:space="preserve">
<style type="text/css">
	.st0{fill:#D24527;}
</style>
<path class="st0" d="M167.1,52.8c91.2,0,165.1,62.5,165.1,139.7s-73.9,139.7-165.1,139.7c-14.8,0-29.2-1.8-42.9-4.9
	c-24.3,15.1-59.4,30.3-102.3,30.3c-7.9,0-15.1-4.7-18.2-12c-3.1-7.3-1.6-15.7,3.7-21.4c0.4-0.3,17.9-19.4,31-44.4
	C15.7,255.8,2,225.5,2,192.5C2,115.3,75.9,52.8,167.1,52.8z M132.7,289.4c11.6,3.3,23.2,4.7,34.4,4.7c70,0,127-45.6,127-101.6
	s-57-101.6-127-101.6s-127,45.6-127,101.6c0,27.9,14,48.6,25.9,61l18.7,19.8l-12.5,24.1c-2.9,4.8-6,11-9.4,16.2
	c14-4,27.9-10.3,41.4-19.4l13.3-7.5L132.7,289.4z M352.5,154.6c87.6,3.3,157.5,64.5,157.5,139.5c0,33-13.7,63.3-36.3,87.2
	c12.9,25,30.5,44.1,31,44.4c5.3,5.7,6.8,14.1,3,21.4c-2.4,7.3-9.6,12-17.5,12c-42.9,0-78-15.2-102.3-30.3
	c-13.7,3.1-28.1,4.9-42.9,4.9c-65.1,0-121.4-31.9-148.3-78.2c13.7-1.8,26.9-4.9,39.4-9.2c22.2,29.5,62.7,49.3,108.8,49.3
	c11.3,0,22.9-1.3,34.4-4.7l15.2-2.8l13.3,7.5c13.5,9,27.3,15.3,41.4,19.4c-3.3-5.2-6.5-11.4-9.4-16.2l-12.5-24.1l18.7-19.8
	c11.8-12.4,25.9-33.1,25.9-61c0-52.6-50.2-96-115-101.1l0.7-0.5C357.6,179.4,355.9,166.7,352.5,154.6L352.5,154.6z"/>
</svg>
