<?xml version="1.0" encoding="utf-8"?>
<!-- Generator: Adobe Illustrator 27.7.0, SVG Export Plug-In . SVG Version: 6.00 Build 0)  -->
<svg version="1.1" id="Layer_1" xmlns="http://www.w3.org/2000/svg" xmlns:xlink="http://www.w3.org/1999/xlink" x="0px" y="0px"
	 viewBox="0 0 512 512" style="enable-background:new 0 0 512 512;" xml:space="preserve">
<style type="text/css">
	.st0{fill:#147580;}
</style>
<path class="st0" d="M300.4,316.5L174.1,365c-17.8,6.6-33.7-10.1-27.1-27.1l48.6-126.3c2.8-7.4,8.7-13.3,16.1-16.1L337.9,147
	c17-6.6,33.7,9.4,27.1,27.1l-48.6,126.3C313.7,307.8,307.8,313.7,300.4,316.5L300.4,316.5z M255.2,228c-14.7,0-28,12.5-28,28
	s13.3,28,28,28c16.3,0,28.8-12.5,28.8-28S271.5,228,255.2,228L255.2,228z M480,256c0,123.7-100.3,224-224,224S32,379.7,32,256
	S132.3,32,256,32S480,132.3,480,256z M256,74C155.5,74,74,155.5,74,256s81.5,182,182,182s182-81.5,182-182S356.5,74,256,74z"/>
</svg>
