<?xml version="1.0" encoding="utf-8"?>
<!-- Generator: Adobe Illustrator 27.7.0, SVG Export Plug-In . SVG Version: 6.00 Build 0)  -->
<svg version="1.1" id="Layer_1" xmlns="http://www.w3.org/2000/svg" xmlns:xlink="http://www.w3.org/1999/xlink" x="0px" y="0px"
	 viewBox="0 0 512 512" style="enable-background:new 0 0 512 512;" xml:space="preserve">
<style type="text/css">
	.st0{fill:#147580;}
</style>
<path class="st0" d="M32,144c0-30.9,25.1-56,56-56h336c30.9,0,56,25.1,56,56v224c0,30.9-25.1,56-56,56H88c-30.9,0-56-25.1-56-56V144
	z M74,144v19.3l150.9,123.9c18,14.9,44.1,14.9,62.1,0L438,163.3v-20.1c0-6.9-6.3-14-14-14H88c-7.7,0-14,7.1-14,14V144z M74,217.7
	V368c0,7.7,6.3,14,14,14h336c7.7,0,14-6.3,14-14V217.7l-124.2,102c-33.6,27.6-81.9,27.6-116.3,0L74,217.7z"/>
</svg>
