<?xml version="1.0" encoding="utf-8"?>
<!-- Generator: Adobe Illustrator 26.4.1, SVG Export Plug-In . SVG Version: 6.00 Build 0)  -->
<svg version="1.1" id="Layer_1" xmlns="http://www.w3.org/2000/svg" xmlns:xlink="http://www.w3.org/1999/xlink" x="0px" y="0px"
	 viewBox="0 0 512 512" style="enable-background:new 0 0 512 512;" xml:space="preserve">
<style type="text/css">
	.st0{fill:#D24527;}
</style>
<path class="st0" d="M143.1,256c0-62.4,50.5-112.9,112.9-112.9S368.9,193.6,368.9,256S318.4,368.9,256,368.9S143.1,318.4,143.1,256z
	 M256,326.6c39,0,70.6-31.6,70.6-70.6S295,185.4,256,185.4c-0.6,0-1.1,0-2.6,0c1.9,4.5,2.6,9.3,2.6,14.1c0,31.1-25.3,56.4-56.4,56.4
	c-4.9,0-9.6-0.6-14.1-2.6c0,1.4,0,1.9,0,1.8C185.5,295,217,326.6,256,326.6L256,326.6z M86.2,129.5c41.5-38.6,98.6-71.1,169.9-71.1
	s128.3,32.5,169.9,71.1c41.3,38.3,68.9,83.3,81.9,115.6c2.9,7,2.9,14.7,0,21.7c-13.1,31.5-40.7,76.6-81.9,115.6
	c-41.5,38.6-98.6,71.1-169.9,71.1s-128.3-32.5-169.9-71.1c-41.3-39.1-68.9-84.1-82-115.6c-2.9-7-2.9-14.7,0-21.7
	C17.3,212.9,44.9,167.8,86.2,129.5L86.2,129.5z M256,100.8c-57.5,0-104.8,26.1-141,59.7c-34,31.6-57.4,68.3-69.4,95.5
	c12,26.5,35.4,63.9,69.4,95.5c36.2,33.6,83.5,59.7,141,59.7s104.8-26.1,141-59.7c34-31.6,56.6-69.1,69.4-95.5
	c-12.8-27.3-35.5-63.9-69.4-95.5C360.8,126.9,313.5,100.8,256,100.8L256,100.8z"/>
</svg>
