<?xml version="1.0" encoding="utf-8"?>
<!-- Generator: Adobe Illustrator 26.5.0, SVG Export Plug-In . SVG Version: 6.00 Build 0)  -->
<svg version="1.1" id="Layer_1" xmlns="http://www.w3.org/2000/svg" xmlns:xlink="http://www.w3.org/1999/xlink" x="0px" y="0px"
	 viewBox="0 0 512 512" style="enable-background:new 0 0 512 512;" xml:space="preserve">
<style type="text/css">
	.st0{fill:#D24527;}
</style>
<g>
	<path class="st0" d="M255.7,506.3C115,503.7,5.8,394.8,6,255.5C6.2,114.8,116.8,5.5,256.3,5.7C396.9,6,506.2,116.6,506,256
		C505.8,396.7,395.1,504.1,255.7,506.3z M460.2,255.6c-0.1-112.8-92-204.4-204.7-204C143.1,51.9,52.1,142.9,51.8,255.3
		C51.5,368,143,459.9,255.9,460C368.7,460.1,460.3,368.3,460.2,255.6z"/>
	<path class="st0" d="M365.1,326.4c0,12.3-9.6,21.9-23.9,22.9c-9.1,0.7-18.3,0.5-27.4,0.2c-40.6-1.4-77.4,9.4-110.2,33.5
		c-5.6,4.1-11.5,7.8-17.7,11c-10.2,5.2-18.9,1.2-25.5-6.7c-6.8-8.2-8.2-17.7-0.9-26.2c5.3-6.2,11.6-11.8,18.2-16.7
		c49.3-36.4,105.8-44.4,164.9-40.8C356,304.4,365.1,314.6,365.1,326.4z"/>
	<path class="st0" d="M208.5,209c-0.2,17.3-13.3,30.5-30.5,30.6c-16.2,0.1-30.8-14.2-31.1-30.6c-0.3-16.7,14.9-31.7,31.7-31.3
		C195.8,178.2,208.7,191.7,208.5,209z"/>
	<path class="st0" d="M365.3,209.1c-0.3,17.3-13.4,30.4-30.6,30.4c-16.2,0-30.8-14.4-30.9-30.7c-0.2-16.8,15.1-31.6,31.9-31.1
		C352.8,178.3,365.6,191.8,365.3,209.1z"/>
</g>
</svg>
