<?xml version="1.0" encoding="utf-8"?>
<!-- Generator: Adobe Illustrator 26.5.0, SVG Export Plug-In . SVG Version: 6.00 Build 0)  -->
<svg version="1.1" id="Layer_1" xmlns="http://www.w3.org/2000/svg" xmlns:xlink="http://www.w3.org/1999/xlink" x="0px" y="0px"
	 viewBox="0 0 512 512" style="enable-background:new 0 0 512 512;" xml:space="preserve">
<style type="text/css">
	.st0{fill:#D24527;}
</style>
<path class="st0" d="M256,349.8c36.3,0,61.7-17.1,76.6-33.1c8.7-9.5,23.5-10.2,33.1-1.4c9.5,8.8,10.1,23.6,1.3,33.1
	c-21.4,23.3-58.5,48.2-110.9,48.2s-89.6-24.9-110.9-48.2c-8.8-9.5-9.1-24.3,1.3-33.1c9.6-8.8,24.4-8.1,33.1,1.4
	C194.3,332.7,219.7,349.8,256,349.8z M209.5,209.1c0,17.3-14.1,31.2-31.2,31.2c-17.3,0-31.2-14-31.2-31.2s14-31.2,31.2-31.2
	C195.5,177.9,209.5,191.8,209.5,209.1z M303.3,209.1c0-17.3,14-31.2,31.2-31.2c17.2,0,31.2,14,31.2,31.2s-14.1,31.2-31.2,31.2
	C317.2,240.4,303.3,226.4,303.3,209.1z M506,256c0,138.1-111.9,250-250,250S6,394.1,6,256S117.9,6,256,6S506,117.9,506,256z
	 M256,52.9C143.8,52.9,52.9,143.8,52.9,256S143.8,459.1,256,459.1S459.1,368.2,459.1,256S368.2,52.9,256,52.9z"/>
</svg>
