<?xml version="1.0" encoding="utf-8"?>
<!-- Generator: Adobe Illustrator 26.5.0, SVG Export Plug-In . SVG Version: 6.00 Build 0)  -->
<svg version="1.1" id="Layer_1" xmlns="http://www.w3.org/2000/svg" xmlns:xlink="http://www.w3.org/1999/xlink" x="0px" y="0px"
	 viewBox="0 0 512 512" style="enable-background:new 0 0 512 512;" xml:space="preserve">
<style type="text/css">
	.st0{fill:#D24527;}
</style>
<path class="st0" d="M68.5,68.5C68.5,34,96.5,6,131,6h161.6c16.6,0,32.4,6.6,44.1,18.3l88.5,88.4c11.7,11.7,18.3,27.5,18.3,44.1
	v286.6c0,34.5-28,62.5-62.5,62.5H131c-34.5,0-62.5-28-62.5-62.5V68.5z M396.6,443.5V162.2h-78.1c-17.3,0-31.2-14-31.2-31.2V52.9H131
	c-8.6,0-15.6,7-15.6,15.6v375c0,8.6,7,15.6,15.6,15.6h250C389.6,459.1,396.6,452.1,396.6,443.5z"/>
</svg>
