<?xml version="1.0" encoding="utf-8"?>
<!-- Generator: Adobe Illustrator 26.4.1, SVG Export Plug-In . SVG Version: 6.00 Build 0)  -->
<svg version="1.1" id="Layer_1" xmlns="http://www.w3.org/2000/svg" xmlns:xlink="http://www.w3.org/1999/xlink" x="0px" y="0px"
	 viewBox="0 0 512 512" style="enable-background:new 0 0 512 512;" xml:space="preserve">
<style type="text/css">
	.st0{fill:#D24527;}
</style>
<path class="st0" d="M256,256c-34.6,0-62.9,28.3-62.9,62.9s28.3,62.9,62.9,62.9s62.9-28.3,62.9-62.9S290.6,256,256,256z
	 M461.4,131.4L379,49c-8-8-20-13-32.5-13H98.9C64.1,36,36,64.1,36,98.9v314.3c0,34.7,28.1,62.9,62.9,62.9h314.3
	c34.7,0,62.9-28.1,62.9-62.9V165.5C476,153.1,471,141,461.4,131.4z M161.7,83.1h141.4v78.6H161.7V83.1z M428.9,413.1
	c0,8.7-7,15.7-15.7,15.7H98.9c-8.7,0-15.7-7-15.7-15.7V98.9c0-8.7,7-15.7,15.7-15.7h15.7v102.1c0,13,10.6,23.6,23.6,23.6h188.6
	c13.1,0,23.6-10.5,23.6-23.6V87l76.9,76.9c1.1,1.1,1.7,2.6,1.7,4.1V413.1z"/>
</svg>
