<?xml version="1.0" encoding="utf-8"?>
<!-- Generator: Adobe Illustrator 26.5.0, SVG Export Plug-In . SVG Version: 6.00 Build 0)  -->
<svg version="1.1" id="Layer_1" xmlns="http://www.w3.org/2000/svg" xmlns:xlink="http://www.w3.org/1999/xlink" x="0px" y="0px"
	 viewBox="0 0 512 512" style="enable-background:new 0 0 512 512;" xml:space="preserve">
<style type="text/css">
	.st0{fill:#D24527;}
</style>
<g>
	<path class="st0" d="M47.5,172.7c-0.2,5.1-0.5,8.5-0.5,11.9c0,60.3,0,120.5,0,180.8c0,15,1.6,16.5,16.6,16.6
		c45.2,0,90.4-0.1,135.6,0.1c5.3,0,12.1-0.4,15.6,2.5c5.4,4.4,10.8,11.1,12.2,17.6c1.8,8.3-3.4,15.8-12.2,18.6
		c-4.3,1.4-9,2.1-13.6,2.1c-47.1,0.1-94.3,0.2-141.4,0.1c-34.1-0.1-53.5-18.9-53.6-53C5.9,266.9,6,163.7,6.3,60.6
		c0-6.2,1.4-14.5,5.4-18c5-4.3,13.6-6.8,20.3-6.3c10.2,0.8,14.6,9.5,14.7,19.2c0.4,19.7,0.2,39.4,0.2,59.1c0,5,0,10,0,16.4
		c4.7,0.2,8.7,0.6,12.8,0.6c46,0,91.9,0,137.9,0c3.1,0,6.2-0.2,9.3,0.1c12.7,1.3,20.8,9.6,20.6,20.7c-0.2,10.7-8,18.6-20.2,20
		c-3.4,0.4-6.9,0.2-10.4,0.2c-45.2,0-90.4,0-135.6,0C57.2,172.7,53,172.7,47.5,172.7z"/>
	<path class="st0" d="M380.8,228.4c-30.9,0-61.8,0.1-92.7,0c-21.3-0.1-31.5-9.8-31.6-31.1c-0.3-44-0.3-88,0-132.1
		c0.1-21.2,10.3-30.7,31.8-30.9c4.2,0,8.5,0.4,12.7-0.1c32.4-3.8,61.8,3,87.8,23.7c3.7,3,9.9,3.9,15,4c23.5,0.4,47.1,0.1,70.7,0.2
		c21.5,0.1,31.3,9.7,31.4,31c0.1,34.7,0.1,69.5,0,104.3c-0.1,21.3-9.8,30.9-31.3,31C443.3,228.5,412,228.4,380.8,228.4z
		 M464.6,103.2c-17.4,0-33.6-0.8-49.7,0.2c-21.3,1.4-41-2.6-57.3-16.6c-18-15.5-38.6-11.2-59.7-10.9c0,37.2,0,73.6,0,110.5
		c55.9,0,111.1,0,166.6,0C464.6,158.6,464.6,131.7,464.6,103.2z"/>
	<path class="st0" d="M380.8,478.7c-30.9,0-61.8,0.1-92.7,0c-21.4-0.1-31.5-9.8-31.6-31c-0.3-44-0.3-88,0-132.1
		c0.1-21.2,10.3-30.8,31.7-31c4.2,0,8.5,0.4,12.7-0.1c32.4-3.8,61.9,2.9,87.8,23.6c3.7,3,9.9,4,15,4.1c23.5,0.4,47.1,0.1,70.7,0.2
		c21.6,0.1,31.4,9.7,31.4,30.9c0.1,35.1,0.1,70.3,0,105.4c-0.1,19.8-10.1,29.8-30.1,29.9C444.1,478.9,412.5,478.7,380.8,478.7z
		 M297.8,437c56.1,0,111.1,0,166.6,0c0-27.8,0-55,0-83.4c-16.3,0-32.1-1-47.7,0.2c-23.1,1.8-43.8-3.3-61.5-18.1
		c-17.6-14.7-37.5-9-57.4-9.6C297.8,363.6,297.8,399.7,297.8,437z"/>
</g>
</svg>
