<?xml version="1.0" encoding="utf-8"?>
<!-- Generator: Adobe Illustrator 26.4.1, SVG Export Plug-In . SVG Version: 6.00 Build 0)  -->
<svg version="1.1" id="Layer_1" xmlns="http://www.w3.org/2000/svg" xmlns:xlink="http://www.w3.org/1999/xlink" x="0px" y="0px"
	 viewBox="0 0 512 512" style="enable-background:new 0 0 512 512;" xml:space="preserve">
<style type="text/css">
	.st0{fill:#D3420D;}
</style>
<path class="st0" d="M503.7,231.6l-98,57c-4.5,13.9-15.5,24.8-29.6,29.1V329c0,27.4-18.5,50.7-43.7,57.9
	c-7.3,27.2-32.3,47.2-61.7,47.2h-91.5L138.1,458c-6.2,3.5-13.9,1.5-17.5-4.7l-6.4-11.1c-3.5-6.1-1.5-13.9,4.7-17.5l50.1-28.9h102.5
	c14.3,0,25.7-11.5,25.7-25.6v-19.1h19.2c12.1,0,22.2-10,22.2-22.2V281h24.8c3.5,0,5.7-2.9,5.7-6.4v-25.5c0-3.5-2.9-6.4-5.7-6.4
	h-82.2v12.1c0,37.4-32.2,67.4-70.3,63.4c-33.3-3.3-57.2-33.9-57.2-67.1v-32.9l-25.8,15.6c-7.7,4.5-12.4,12.9-12.4,22v49.2
	l-88.6,51.7c-6.2,3.5-13.9,1.4-17.5-4.8l-5.7-11.1c-3.5-6.1-1.5-13.9,4.7-17.5L78.6,283v-27.2c0-22.5,11.8-43.4,31-54.9l47.3-28.3
	c3.7-16.3,12.8-30.7,28.1-39.8l25.3-16.6c14.2-8.8,30.4-12.8,47.2-12.8h74L418.1,54c6.1-3.5,13.9-1.4,17.4,4.8l6.3,11.1
	c3.5,6.1,1.4,13.9-4.1,17.5l-95.4,54.3h-84.1c-8.8,0-18.8,2.7-27,7.7l-27.3,15.9c-7.3,4.5-12,12.8-12,21.6v68.7
	c0,14,11.3,25.5,24.8,25.5c14.2,0,24.8-11.5,24.8-25.5v-51h120.4c22.6,0,41.1,16.9,44,38.7l77.1-45c6.2-3.5,13.9-1.5,17.5,4.7
	l5.7,11.1C512.5,220.4,510.5,228,503.7,231.6z"/>
</svg>
