<?xml version="1.0" encoding="utf-8"?>
<!-- Generator: Adobe Illustrator 26.5.0, SVG Export Plug-In . SVG Version: 6.00 Build 0)  -->
<svg version="1.1" id="Layer_1" xmlns="http://www.w3.org/2000/svg" xmlns:xlink="http://www.w3.org/1999/xlink" x="0px" y="0px"
	 viewBox="0 0 512 512" style="enable-background:new 0 0 512 512;" xml:space="preserve">
<style type="text/css">
	.st0{fill:#D24527;}
</style>
<path class="st0" d="M420.1,84.1c-3.9,0-7.7,0.3-11.5,0.9c-9.4-27.8-35.7-48-66.7-48c-6.3,0-12.4,0.8-18.2,2.4
	C311.3,19.4,289.1,6,263.8,6s-47.6,13.5-60,33.6c-5.8-1.6-11.8-2.4-18.1-2.4c-38.8,0-70.4,31.5-70.4,70.3v118.8
	c-5.1-1-10.4-1.6-15.6-1.6c0,0,0,0,0,0c-42.6,0-78.1,34.4-78.1,78.2c0,19.8,7.4,38.6,21,53.2l79.3,85.2
	c38.3,41.1,92.5,64.7,148.6,64.7h32.3c103.4,0,187.5-84.1,187.5-187.5V154.4C490.4,115.7,458.8,84.1,420.1,84.1z M443.5,318.5
	c0,77.5-63.1,140.6-139.7,140.6h-33.2c-43.4,0-84.8-18-114.4-49.8l-77.9-83.6c-6.1-6.5-9.2-15-9.2-22.6c0-21.6,18.1-30.7,30.6-30.7
	c8.4,0,16.7,3.3,22.9,9.9l26.1,28c1.6,0.9,3.7,1.6,5.6,1.6c4,0,7.9-3.1,7.9-7.8V107.6c0-12.9,10.5-23.4,22.6-23.4
	c12.9,0,22.6,10.5,22.6,23.4V256c1.8,8.6,8.8,15.6,17.4,15.6s14.7-7,14.7-14.7l0.9-180.6c0-12.9,10.5-23.4,22.6-23.4
	c12.9,0,22.6,10.5,22.6,23.4V256c1.8,8.6,8.8,15.6,17.4,15.6s15.6-7,15.6-14.7l0-148.6c0-12.9,10.5-23.4,22.6-23.4
	c12.9,0,22.6,10.5,22.6,23.4v148.6c1.8,7.7,8.8,14.7,17.4,14.7s14.7-7,14.7-14.7V154.4c0-12.9,10.5-23.4,22.6-23.4
	c12.9,0,22.6,10.5,22.6,23.4v164.1H443.5z"/>
</svg>
