<?xml version="1.0" encoding="utf-8"?>
<!-- Generator: Adobe Illustrator 27.7.0, SVG Export Plug-In . SVG Version: 6.00 Build 0)  -->
<svg version="1.1" id="Layer_1" xmlns="http://www.w3.org/2000/svg" xmlns:xlink="http://www.w3.org/1999/xlink" x="0px" y="0px"
	 viewBox="0 0 512 512" style="enable-background:new 0 0 512 512;" xml:space="preserve">
<style type="text/css">
	.st0{fill:#147580;}
</style>
<path class="st0" d="M245.5,101.1l9.7,10.5l10.5-10.5c29.3-28.6,69.9-41.6,109.8-34.9c60.3,10,104.5,62.2,104.5,123.4v5.1
	c0,36.3-15.1,71.1-41.6,95.8L280.2,438c-6.6,6.1-15.2,9.5-24.2,9.5c-9,0-17.7-3.4-24.2-9.5L73.6,290.4C47.1,265.6,32,230.9,32,194.6
	v-5.1c0-61.2,44.2-113.3,104.5-123.4C175.6,59.5,217,72.5,245.5,101.1C244.7,101.1,245.5,101.1,245.5,101.1L245.5,101.1z M255.2,171
	L215.8,130c-19-18.2-45.9-26.9-72.5-22.5c-40,6.7-69.4,41.4-69.4,82v5.1c0,24.7,10.2,48.3,28.3,65.1L256,403.2l153.7-143.5
	c18-16.8,28.3-40.4,28.3-65.1v-5.1c0-40.6-29.4-75.3-69.4-82c-26.5-4.4-53.5,4.2-72.5,22.5L255.2,171z"/>
</svg>
