<?xml version="1.0" encoding="utf-8"?>
<!-- Generator: Adobe Illustrator 26.4.1, SVG Export Plug-In . SVG Version: 6.00 Build 0)  -->
<svg version="1.1" id="Layer_1" xmlns="http://www.w3.org/2000/svg" xmlns:xlink="http://www.w3.org/1999/xlink" x="0px" y="0px"
	 viewBox="0 0 512 512" style="enable-background:new 0 0 512 512;" xml:space="preserve">
<style type="text/css">
	.st0{fill:#D24527;}
</style>
<path class="st0" d="M326.6,333.6h84.7c11.7,0,21.2-9.5,21.2-21.2c0-11.7-9.5-21.2-21.2-21.2h-84.7c-11.7,0-21.2,9.5-21.2,21.2
	C305.4,324.1,314.9,333.6,326.6,333.6z M185.4,312.4c31.2,0,56.4-25.3,56.4-56.4s-25.3-56.4-56.4-56.4S129,224.8,129,256
	C129,287.1,154.3,312.4,185.4,312.4z M453.6,58.4H58.4C27.3,58.4,2,83.7,2,114.9v282.2c0,31.2,25.3,56.4,56.4,56.4h395.1
	c31.2,0,56.4-25.3,56.4-56.4V114.9C510,83.7,484.7,58.4,453.6,58.4z M467.7,397.1c0,7.8-6.3,14.1-14.1,14.1H284.2
	c0-39-31.6-70.6-70.6-70.6h-56.4c-39,0-70.6,31.6-70.6,70.6H58.4c-7.8,0-14.1-6.3-14.1-14.1V171.3h423.3V397.1z M326.6,263.1h84.7
	c11.7,0,21.2-9.5,21.2-21.2s-9.5-21.2-21.2-21.2h-84.7c-11.7,0-21.2,9.5-21.2,21.2S314.9,263.1,326.6,263.1z"/>
</svg>
