<?xml version="1.0" encoding="utf-8"?>
<!-- Generator: Adobe Illustrator 26.4.1, SVG Export Plug-In . SVG Version: 6.00 Build 0)  -->
<svg version="1.1" id="Layer_1" xmlns="http://www.w3.org/2000/svg" xmlns:xlink="http://www.w3.org/1999/xlink" x="0px" y="0px"
	 viewBox="0 0 512 512" style="enable-background:new 0 0 512 512;" xml:space="preserve">
<style type="text/css">
	.st0{fill:#D24527;}
</style>
<path class="st0" d="M453.6,58.4H143.1c-31.2,0-56.4,25.3-56.4,56.4v197.6c0,31.2,25.3,56.4,56.4,56.4h310.4
	c31.2,0,56.4-25.3,56.4-56.4V114.9C510,83.7,484.7,58.4,453.6,58.4z M467.7,312.4c0,7.8-6.3,14.1-14.1,14.1h-14.1L343,184.7
	c-2.6-3.9-7.1-6.3-11.8-6.3c-4.7,0-9.1,2.4-11.7,6.3l-55.3,83l-19.7-27c-2.6-3.7-6.9-5.8-11.4-5.8c-4.5,0-8.7,2.2-11.4,5.8
	l-64.4,85.9h-14.1c-7.8,0-14.1-6.3-14.1-14.1V114.9c0-7.8,6.3-14.1,14.1-14.1h310.4c7.8,0,14.1,6.3,14.1,14.1V312.4z M199.6,129
	c-15.6,0-28.2,12.6-28.2,28.2s12.6,28.2,28.2,28.2c15.6,0,28.2-12.6,28.2-28.2S215.2,129,199.6,129z M404.2,453.6H107.8
	C49.5,453.6,2,406.1,2,347.7V136.1c0-11.6,9.5-21.2,21.2-21.2s21.2,9.5,21.2,21.2v211.7c0,35,28.5,63.5,63.5,63.5h296.3
	c11.7,0,21.2,9.5,21.2,21.2S415.9,453.6,404.2,453.6z"/>
</svg>
