<?xml version="1.0" encoding="utf-8"?>
<!-- Generator: Adobe Illustrator 26.4.1, SVG Export Plug-In . SVG Version: 6.00 Build 0)  -->
<svg version="1.1" id="Layer_1" xmlns="http://www.w3.org/2000/svg" xmlns:xlink="http://www.w3.org/1999/xlink" x="0px" y="0px"
	 viewBox="0 0 512 512" style="enable-background:new 0 0 512 512;" xml:space="preserve">
<style type="text/css">
	.st0{fill:#D24527;}
</style>
<path class="st0" d="M116.3,313.1c0,10.6-8.5,19.1-19.1,19.1s-19.1-8.5-19.1-19.1V198.9c0-10.6,8.5-19.1,19.1-19.1
	s19.1,8.5,19.1,19.1V313.1z M2,154.4c0-28.1,22.7-50.8,50.8-50.8h406.4c28,0,50.8,22.7,50.8,50.8v203.2c0,28-22.8,50.8-50.8,50.8
	H52.8C24.7,408.4,2,385.6,2,357.6V154.4z M40.1,154.4v203.2c0,7,5.7,12.7,12.7,12.7h406.4c7,0,12.7-5.7,12.7-12.7V154.4
	c0-7-5.7-12.7-12.7-12.7H52.8C45.8,141.7,40.1,147.4,40.1,154.4z"/>
</svg>
