<?xml version="1.0" encoding="utf-8"?>
<!-- Generator: Adobe Illustrator 26.4.1, SVG Export Plug-In . SVG Version: 6.00 Build 0)  -->
<svg version="1.1" id="Layer_1" xmlns="http://www.w3.org/2000/svg" xmlns:xlink="http://www.w3.org/1999/xlink" x="0px" y="0px"
	 viewBox="0 0 512 512" style="enable-background:new 0 0 512 512;" xml:space="preserve">
<style type="text/css">
	.st0{fill:#D24527;}
</style>
<path class="st0" d="M453.6,86.7H58.4C27.3,86.7,2,111.9,2,143.1v225.8c0,31.2,25.3,56.4,56.4,56.4h395.1
	c31.2,0,56.4-25.3,56.4-56.4V143.1C510,111.9,484.7,86.7,453.6,86.7z M467.7,368.9c0,7.8-6.3,14.1-14.1,14.1H58.4
	c-7.8,0-14.1-6.3-14.1-14.1V143.1c0-7.8,6.3-14.1,14.1-14.1h395.1c7.8,0,14.1,6.3,14.1,14.1V368.9z M125.5,164.3h-21.2
	c-5.9,0-10.6,4.7-10.6,10.6V196c0,5.9,4.7,10.6,10.6,10.6h21.2c5.9,0,10.6-4.7,10.6-10.6v-21.2C136.1,169,131.4,164.3,125.5,164.3z
	 M174.9,206.6H196c5.9,0,10.6-4.7,10.6-10.6v-21.2c0-5.9-4.7-10.6-10.6-10.6h-21.2c-5.9,0-10.6,4.7-10.6,10.6V196
	C164.3,201.9,169,206.6,174.9,206.6z M245.4,206.6h21.2c5.9,0,10.6-4.7,10.6-10.6v-21.2c0-5.9-4.7-10.6-10.6-10.6h-21.2
	c-5.9,0-10.6,4.7-10.6,10.6V196C234.8,201.9,239.5,206.6,245.4,206.6z M316,206.6h21.2c5.9,0,10.6-4.7,10.6-10.6v-21.2
	c0-5.9-4.7-10.6-10.6-10.6H316c-5.9,0-10.6,4.7-10.6,10.6V196C305.4,201.9,310.1,206.6,316,206.6z M407.7,164.3h-21.2
	c-5.9,0-10.6,4.7-10.6,10.6V196c0,5.9,4.7,10.6,10.6,10.6h21.2c5.9,0,10.6-4.7,10.6-10.6v-21.2C418.3,169,413.6,164.3,407.7,164.3z
	 M125.5,234.8h-21.2c-5.9,0-10.6,4.7-10.6,10.6v21.2c0,5.9,4.7,10.6,10.6,10.6h21.2c5.9,0,10.6-4.7,10.6-10.6v-21.2
	C136.1,239.5,131.4,234.8,125.5,234.8z M174.9,277.2H196c5.9,0,10.6-4.7,10.6-10.6v-21.2c0-5.9-4.7-10.6-10.6-10.6h-21.2
	c-5.9,0-10.6,4.7-10.6,10.6v21.2C164.3,272.5,169,277.2,174.9,277.2z M245.4,277.2h21.2c5.9,0,10.6-4.7,10.6-10.6v-21.2
	c0-5.9-4.7-10.6-10.6-10.6h-21.2c-5.9,0-10.6,4.7-10.6,10.6v21.2C234.8,272.5,239.5,277.2,245.4,277.2z M316,277.2h21.2
	c5.9,0,10.6-4.7,10.6-10.6v-21.2c0-5.9-4.7-10.6-10.6-10.6H316c-5.9,0-10.6,4.7-10.6,10.6v21.2C305.4,272.5,310.1,277.2,316,277.2z
	 M407.7,234.8h-21.2c-5.9,0-10.6,4.7-10.6,10.6v21.2c0,5.9,4.7,10.6,10.6,10.6h21.2c5.9,0,10.6-4.7,10.6-10.6v-21.2
	C418.3,239.5,413.6,234.8,407.7,234.8z M354.8,312.4H157.2c-7.8,0-14.1,6.3-14.1,14.1v14.1c0,7.8,6.3,14.1,14.1,14.1h197.6
	c7.8,0,14.1-6.3,14.1-14.1v-14.1C368.9,318.7,362.6,312.4,354.8,312.4z"/>
</svg>
