<?xml version="1.0" encoding="utf-8"?>
<!-- Generator: Adobe Illustrator 27.7.0, SVG Export Plug-In . SVG Version: 6.00 Build 0)  -->
<svg version="1.1" id="Layer_1" xmlns="http://www.w3.org/2000/svg" xmlns:xlink="http://www.w3.org/1999/xlink" x="0px" y="0px"
	 viewBox="0 0 512 512" style="enable-background:new 0 0 512 512;" xml:space="preserve">
<style type="text/css">
	.st0{fill:#147580;}
</style>
<path class="st0" d="M186.1,429.5c0,5.5,1.6,10.9,4.6,15.5l15,22.5c4.6,6.9,15,12.5,23.3,12.5h54c8.3,0,18.7-5.6,23.3-12.5
	l14.9-22.5c2.6-3.9,4.7-10.8,4.7-15.5l0.1-34.3H186L186.1,429.5z M256,32c-89.2,0.3-154,72.6-154,153.2c0,38.8,14.4,74.2,38.1,101.3
	c14.5,16.5,37.1,51,45.7,80c0,0.2,0.1,0.5,0.1,0.7h140.2c0-0.2,0.1-0.5,0.1-0.7c8.6-29.1,31.2-63.5,45.7-80
	c23.8-26.3,38.1-61.7,38.1-101.3C410,101,341.1,32,256,32z M340.4,259.6c-13.7,15.6-30.7,40.5-42.9,66.4h-82.8
	c-12.3-25.9-29.2-50.8-42.9-66.4c-17.9-20.4-27.7-47.3-27.7-74.4c0-54.1,42.1-111,111.2-111.2C317.8,74,368,124.2,368,185.2
	C368,212.4,358.2,239.2,340.4,259.6z M242,102c-38.6,0-70,31.4-70,70c0,7.7,6.3,14,14,14c7.7,0,14-6.3,14-14c0-23.2,18.8-42,42-42
	c7.7,0,14-6.3,14-14S249.7,102,242,102z"/>
</svg>
