<?xml version="1.0" encoding="utf-8"?>
<!-- Generator: Adobe Illustrator 26.4.1, SVG Export Plug-In . SVG Version: 6.00 Build 0)  -->
<svg version="1.1" id="Layer_1" xmlns="http://www.w3.org/2000/svg" xmlns:xlink="http://www.w3.org/1999/xlink" x="0px" y="0px"
	 viewBox="0 0 512 512" style="enable-background:new 0 0 512 512;" xml:space="preserve">
<style type="text/css">
	.st0{fill:#D24527;}
</style>
<path class="st0" d="M284.2,72.6H57.7c-7,0-14.1,6.3-14.1,14.1v338.7c0,7.8,7.1,14.1,14.1,14.1h195.3c10.6,16.2,24.2,30.4,39.9,41.7
	c-2.7,0.4-5.6,0.6-8.6,0.6H58.4C27.3,481.8,2,456.5,2,425.3V86.7c0-31.2,25.3-56.4,56.4-56.4h225.8c31.1,0,56.4,25.3,56.4,56.4
	v118.7c-15.2,4.3-29.5,10.8-42.3,19.3V85.9c0-7-6.4-14.1-14.1-14.1V72.6z M85.9,164.3c0-11.7,10.2-21.2,21.2-21.2h127
	c12.5,0,21.2,9.4,21.2,21.2c0,11.7-8.6,21.2-21.2,21.2H107C96.1,185.4,85.9,176,85.9,164.3z M234,227.8c12.5,0,21.2,9.4,21.2,21.2
	c0,11.7-8.6,21.2-21.2,21.2H107c-10.9,0-21.2-9.4-21.2-21.2c0-11.7,10.2-21.2,21.2-21.2H234z M149.4,312.4
	c12.5,0,21.2,9.4,21.2,21.2s-8.6,21.2-21.2,21.2H107c-10.9,0-21.2-9.4-21.2-21.2s10.2-21.2,21.2-21.2H149.4z M510,354.8
	c0,70.1-56.9,127-127,127s-127.8-56.9-127.8-127s57.7-127,127.8-127S510,284.7,510,354.8z M422.4,316.6l-53.5,53.5l-25.3-25.3
	c-5.5-5.6-14.5-5.6-19.9,0c-5.6,5.5-5.6,14.5,0,19.9l35.3,35.3c5.5,5.6,14.5,5.6,19.9,0l63.5-63.5c5.6-5.5,5.6-14.5,0-19.9
	C436.9,311,427.9,311,422.4,316.6L422.4,316.6z"/>
</svg>
