<?xml version="1.0" encoding="utf-8"?>
<!-- Generator: Adobe Illustrator 26.4.1, SVG Export Plug-In . SVG Version: 6.00 Build 0)  -->
<svg version="1.1" id="Layer_1" xmlns="http://www.w3.org/2000/svg" xmlns:xlink="http://www.w3.org/1999/xlink" x="0px" y="0px"
	 viewBox="0 0 512 512" style="enable-background:new 0 0 512 512;" xml:space="preserve">
<style type="text/css">
	.st0{fill:#D24527;}
</style>
<path class="st0" d="M311.3,140l-77.9,90.9l-29.2-29.2c-9.2-9.2-24.2-9.2-33.4,0c-9.2,9.2-9.2,24.2,0,33.4l47.2,47.2
	c4.4,4.4,10.5,6.9,16.7,6.9c0.3,0,0.6,0,0.9,0c6.6-0.2,12.8-3.2,17-8.2l94.5-110.2c8.5-9.9,7.4-24.8-2.6-33.3
	C334.7,129,319.8,130.1,311.3,140z M445,5.8H67C32.3,5.8,4,34.1,4,67.9v282.6c0,34.7,28.3,62.1,63,62.1h94.5v81.8
	c0,9.7,10.8,15.3,18.8,9.5l122.9-92.2H445c34.7,0,63-28.3,63-62.1V67.9C508,34.1,480.5,5.8,445,5.8z M461.6,352.2
	c0,8.6-7.1,15.7-15.7,15.7H288.4L209.6,427V368H67.9c-8.6,0-15.7-7.1-15.7-15.7V68.8c0-8.6,7.1-15.7,15.7-15.7h378
	c8.6,0,15.7,7.1,15.7,15.7V352.2z"/>
</svg>
