<?xml version="1.0" encoding="utf-8"?>
<!-- Generator: Adobe Illustrator 26.4.1, SVG Export Plug-In . SVG Version: 6.00 Build 0)  -->
<svg version="1.1" id="Layer_1" xmlns="http://www.w3.org/2000/svg" xmlns:xlink="http://www.w3.org/1999/xlink" x="0px" y="0px"
	 viewBox="0 0 512 512" style="enable-background:new 0 0 512 512;" xml:space="preserve">
<style type="text/css">
	.st0{fill:#D24527;}
</style>
<path class="st0" d="M445,103l-18.3-17.6c-7.4-7.4-7.4-19.5,0-26.9c7.5-7.4,19.5-7.4,26.3,0l50.8,50.8c4.3,3.6,6.3,8.4,6.3,13.5
	c0,5.1-2,9.9-6.3,12.8l-50.8,50.8c-6.7,8.1-18.8,8.1-26.3,0c-7.4-6.7-7.4-18.8,0-26.3l18.3-19H129v12.7c0,28.7-22.8,50.8-50.8,50.8
	H65.5v74.9l-38.1,38.1V153.8c0-27.3,22.7-50.8,50.8-50.8h228.3l0.3,0.7L445,103z M446.5,306.2v-73.5l38.1-38.1V357
	c0,28.7-22.8,50.8-50.8,50.8H67l17.6,19c8.1,7.5,8.1,19.5,0,26.3c-6.7,8.1-18.8,8.1-26.2,0L7.6,402.2C4,399.4,2,394.5,2,388.7
	c0-4.4,2-9.2,5.6-12.8l50.8-50.8c7.4-7.4,19.5-7.4,26.2,0c8.1,7.5,8.1,19.5,0,26.3L67,369.7h137.4c0.8,0,1,0,1,0H383V357
	c0-27.4,22.8-50.8,50.8-50.8H446.5z M179.8,255.4c0-42.1,33.4-76.2,76.2-76.2c42.1,0,76.2,34.1,76.2,76.2
	c0,42.8-34.1,76.2-76.2,76.2C213.2,331.6,179.8,298.2,179.8,255.4L179.8,255.4z"/>
</svg>
