<?xml version="1.0" encoding="utf-8"?>
<!-- Generator: Adobe Illustrator 26.4.1, SVG Export Plug-In . SVG Version: 6.00 Build 0)  -->
<svg version="1.1" id="Layer_1" xmlns="http://www.w3.org/2000/svg" xmlns:xlink="http://www.w3.org/1999/xlink" x="0px" y="0px"
	 viewBox="0 0 512 512" style="enable-background:new 0 0 512 512;" xml:space="preserve">
<style type="text/css">
	.st0{fill:#D3420D;}
</style>
<path class="st0" d="M390.6,76.7H16.9C8.7,76.7,2,83.4,2,91.6v254.1c0,49.5,40.1,89.6,89.6,89.6H271c49.5,0,89.6-40.1,89.6-89.6
	v-29.9h24.6c62.5,0,118.2-45.5,124.2-107.7C516.5,136.9,460.4,76.7,390.6,76.7z M315.9,345.7c0,24.7-20.2,44.8-44.8,44.8H91.6
	c-24.7,0-44.8-20.2-44.8-44.8V121.5h269L315.9,345.7L315.9,345.7z M390.6,271h-29.9V121.5h29.9c41.2,0,74.7,33.5,74.7,74.7
	S431.8,271,390.6,271z"/>
</svg>
