<?xml version="1.0" encoding="utf-8"?>
<!-- Generator: Adobe Illustrator 26.4.1, SVG Export Plug-In . SVG Version: 6.00 Build 0)  -->
<svg version="1.1" id="Layer_1" xmlns="http://www.w3.org/2000/svg" xmlns:xlink="http://www.w3.org/1999/xlink" x="0px" y="0px"
	 viewBox="0 0 512 512" style="enable-background:new 0 0 512 512;" xml:space="preserve">
<style type="text/css">
	.st0{fill:#D3420D;}
</style>
<path class="st0" d="M398.9,192.5H33.8C16.1,192.5,2,206.6,2,224.2v190.5C2,467.3,44.7,510,97.2,510h190.5
	c52.6,0,95.2-42.7,95.2-95.2h15.9c61.3,0,111.1-49.8,111.1-111.1S460.2,192.5,398.9,192.5z M335.4,414.7c0,26.3-21.3,47.6-47.6,47.6
	H97.2c-26.3,0-47.6-21.3-47.6-47.6V240.1h285.8V414.7z M398.9,367.1H383v-127h15.9c34.9,0,63.5,28.6,63.5,63.5
	S433.9,367.1,398.9,367.1z M109.1,101.9c12.3,6.3,19.9,20.5,19.9,35c0,13.1,10.7,23.7,23.8,23.7s23.8-11.7,23.8-24
	c0-31.1-16.7-60.1-43.6-75.8c-12.3-7.2-19.9-20.5-19.9-34.7c0-13.2-10.7-24-23.8-24s-23.8,10.8-23.8,24
	C65.5,57.1,82.2,86.2,109.1,101.9z M220.2,101.9c12.3,6.3,19.9,20.5,19.9,35c0,13.1,10.7,23.7,23.8,23.7c13.1,0,23.8-11.7,23.8-24
	c0-31.1-16.7-60.1-43.6-75.8c-12.3-7.2-19.9-20.5-19.9-34.7c0-13.1-10.7-24-23.8-24s-23.8,10.8-23.8,24
	C176.6,57.1,193.3,86.2,220.2,101.9z"/>
</svg>
