<?xml version="1.0" encoding="utf-8"?>
<!-- Generator: Adobe Illustrator 26.5.0, SVG Export Plug-In . SVG Version: 6.00 Build 0)  -->
<svg version="1.1" id="Layer_1" xmlns="http://www.w3.org/2000/svg" xmlns:xlink="http://www.w3.org/1999/xlink" x="0px" y="0px"
	 viewBox="0 0 512 512" style="enable-background:new 0 0 512 512;" xml:space="preserve">
<style type="text/css">
	.st0{fill:#D24527;}
</style>
<g>
	<path class="st0" d="M140.9,276c-7.1,2.9-13.7,6.5-20.8,8.3c-44.5,11.5-93-15.5-98-67.1c-4.2-43.9,25.6-81.3,69-85.3
		c25.6-2.3,47.1,5.5,64.9,23.6c3.2,3.2,5.5,3.4,9.4,1.8C220,135.4,274.7,113.7,329.3,92c3.7-1.5,5.2-3.2,5.4-7.4
		c1.3-29.2,12-53.4,38.4-68.2c46.8-26.3,110.8-1.1,116.6,58.5c3.2,33.2-9.7,59-38.3,76.2c-7.3,4.3-16.1,6.2-24.4,8.5
		c-4,1.1-6,2.5-6.8,7.1c-11,62.5-22.1,124.9-33.5,187.3c-1,5.3,2,6.8,5.3,9c21.3,14,34.1,33.7,35.7,59.2
		c2.7,44.1-25.9,79.1-69.2,83.5c-45.8,4.7-85.9-27.8-87.1-76.6c-0.2-9,3.4-18.2,5.8-27.2c0.9-3.3,1.1-5.4-1.7-7.9
		c-44.7-39.1-89.3-78.3-133.9-117.5C141.3,276.1,140.9,276,140.9,276z M307.9,361.2c9.4-3.1,17.7-6.4,26.2-8.5
		c4.6-1.2,6.7-2.8,7.6-7.7c11.3-62.4,22.8-124.7,34.3-187.1c0.7-3.6-0.6-5.4-3.5-7.4c-5.7-3.9-11.4-8-16.3-12.9
		c-3.3-3.3-5.7-3.7-10-2c-53.9,21.7-107.8,43.2-161.9,64.4c-5.9,2.3-7.5,5.9-8.1,11.5c-0.9,7.7-2,15.5-3.9,23
		c-1.1,4.4-0.8,7.1,2.8,10c10.2,8.5,20,17.4,30,26.1C239.6,301.1,274,331.4,307.9,361.2z M412.6,115.2c18,0.1,31.3-13,31.6-31
		c0.2-18.3-13.1-31.8-31.4-31.9c-18.1,0-31.3,13-31.6,31C381,101.7,394.3,115.2,412.6,115.2z M349.8,459.8
		c18,0.1,31.4-12.9,31.7-30.9c0.3-18.3-12.9-31.9-31.2-32c-18-0.1-31.4,12.9-31.7,30.9C318.3,446.1,331.5,459.7,349.8,459.8z
		 M129.8,209.2c0-18.1-12.9-31.4-30.9-31.6c-17-0.2-32.3,14.3-31.7,31.4c0.5,15.3,11.4,31.6,31.5,31.6
		C116.6,240.5,129.8,227.2,129.8,209.2z"/>
</g>
</svg>
