<?xml version="1.0" encoding="utf-8"?>
<!-- Generator: Adobe Illustrator 26.4.1, SVG Export Plug-In . SVG Version: 6.00 Build 0)  -->
<svg version="1.1" id="Layer_1" xmlns="http://www.w3.org/2000/svg" xmlns:xlink="http://www.w3.org/1999/xlink" x="0px" y="0px"
	 viewBox="0 0 512 512" style="enable-background:new 0 0 512 512;" xml:space="preserve">
<style type="text/css">
	.st0{fill:#D3420D;}
</style>
<path class="st0" d="M160.8,255.1c0,18.5-14.2,31.7-31.8,31.7s-31.8-13.3-31.8-31.7c0-16.7,14.2-31.8,31.8-31.8
	S160.8,238.4,160.8,255.1z M129,159.9c0-16.7,14.2-31.8,31.8-31.8s31.8,15.1,31.8,31.8c0,18.5-14.2,31.8-31.8,31.8
	S129,178.3,129,159.9z M287.8,128.1c0,18.5-14.2,31.8-31.8,31.8s-31.8-13.3-31.8-31.8c0-16.7,14.2-31.8,31.8-31.8
	S287.8,111.4,287.8,128.1z M319.5,159.9c0-16.7,14.2-31.8,31.8-31.8s31.8,15.1,31.8,31.8c0,18.5-14.2,31.8-31.8,31.8
	S319.5,178.3,319.5,159.9z M440.4,318.6h-97.1c-26.3,0-47.6,22.2-47.6,48.5c0,3.4,0.4,6.6,1,9.8c2.2,10.1,6.4,19,10.8,29.7
	c6,13.7,12,27.3,12,41.7c0,31.7-21.4,60.2-53,61.5c-3.5,0.1-7,0.2-10.5,0.2C115.7,510,2,396.3,2,256S115.7,2,256,2
	s254,113.7,254,254c0,0.9-0.9,1.8-0.9,2.7c0.5,36.2-32.4,60.8-68.7,60.8L440.4,318.6L440.4,318.6z M461.5,258.2
	c0-0.8,0.9-1.5,0.9-3.1C462.4,142,370,48.7,256,48.7S49.6,142,49.6,255.1C49.6,370,142,462.4,256,462.4c2.9,0,5.8-0.1,8.5-0.2
	c0.8,0,1.3-0.2,1.6-0.3c0.4-0.3,1.1-0.7,2-1.8c1.9-2.3,3.8-6.4,3.8-11.8c0-1.7-0.6-5.5-5.6-17c-0.6-1.2-1.2-2.6-1.9-4.2
	c-4.3-9.5-11-24.8-14.3-40.4c-1.4-6.3-2.1-12.9-2.1-19.6c0-53.5,41.8-96.1,95.2-96.1h97.1c7.6,0,13.1-1.8,17.7-4.9
	C461.4,263.3,461.5,260.9,461.5,258.2L461.5,258.2z"/>
</svg>
