<?xml version="1.0" encoding="utf-8"?>
<!-- Generator: Adobe Illustrator 26.5.0, SVG Export Plug-In . SVG Version: 6.00 Build 0)  -->
<svg version="1.1" id="Layer_1" xmlns="http://www.w3.org/2000/svg" xmlns:xlink="http://www.w3.org/1999/xlink" x="0px" y="0px"
	 viewBox="0 0 512 512" style="enable-background:new 0 0 512 512;" xml:space="preserve">
<style type="text/css">
	.st0{fill:#D24527;}
</style>
<g>
	<path class="st0" d="M416.8,63.3c0,5.4,0,11.7,0,17.9c0,127.6,0,255.2,0,382.8c0,6.4,0.1,12.9-0.8,19.2
		c-2.1,13.6-12.2,22.4-25.2,22.8c-13.6,0.4-24.9-8.5-27.2-22.3c-1-6.3-0.9-12.8-0.9-19.2c0-127.6,0-255.2,0-382.8
		c0-6.3,0-12.6,0-19.9c-17.7,0-33.8,0-52.6,0c0,6,0,12.2,0,18.3c0,128.1,0,256.2,0,384.3c0,5.9,0.1,11.9-0.7,17.8
		c-1.9,14.5-12.1,23.7-25.8,23.9c-14.4,0.2-26.1-9.1-26.9-24.1c-1.2-22.7-0.7-45.5-0.8-68.2c-0.1-16.2,0-32.3,0-50.1
		c-17.1,0-32.3,0-47.5,0C96.7,363.5,17.1,278.1,25,167.1C30.2,93.9,92,26.4,168.7,11.3c16.4-3.2,33.3-4.9,50-5
		C294.8,5.8,371,6.1,447.1,6.1c4.9,0,9.9,0,14.8,0.7c17.4,2.7,26.5,13.1,25.6,28.7c-0.9,15.4-11.6,24.7-29.1,25.1
		C446,61,433.7,61,421.3,61.2C420.5,61.2,419.6,62,416.8,63.3z M254.9,60.8c-19.1,0-36.4-0.6-53.6,0.1C131.4,64,77.7,119,78.7,186
		c1.1,69.4,54.5,121.7,125.6,122.8c11.4,0.2,22.8-0.8,34.1,0.3c13.3,1.2,17.8-3,17.6-17c-0.7-71.6-0.3-143.3-0.4-214.9
		C255.6,72.3,255.2,67.5,254.9,60.8z"/>
</g>
</svg>
