<?xml version="1.0" encoding="utf-8"?>
<!-- Generator: Adobe Illustrator 26.5.0, SVG Export Plug-In . SVG Version: 6.00 Build 0)  -->
<svg version="1.1" id="Layer_1" xmlns="http://www.w3.org/2000/svg" xmlns:xlink="http://www.w3.org/1999/xlink" x="0px" y="0px"
	 viewBox="0 0 512 512" style="enable-background:new 0 0 512 512;" xml:space="preserve">
<style type="text/css">
	.st0{fill:#C14F34;}
</style>
<g>
	<path class="st0" d="M99.7,193.9c-5.4-0.8-10-1.1-14.4-2.1c-9.9-2.5-17-12.2-16.8-22.3c0.3-10.6,7.3-19.3,17.5-21.6
		c3.4-0.8,6.9-1.3,10.3-1.3c106.6-0.1,213.1-0.1,319.7,0c15,0,23.9,6,26.7,17.9c3.6,15.1-6.1,27.4-22.8,28.7c-2.1,0.2-4.3,0-7.3,0
		c0,2.7,0,5,0,7.4c-0.4,23.3,0.4,46.6-1.4,69.8c-3.1,41-20.4,75.4-51.6,102.6c-21.3,18.5-45.8,30.6-73.5,35.9
		c-5.3,1-6.9,3.1-6.8,8.6c0.3,29.4,0.1,58.7,0.1,88.6c-15.3,0-30.4,0-46.6,0c0-2,0-4.2,0-6.5c0-27.4-0.2-54.8,0.2-82.2
		c0.1-5.6-1.9-7.4-7-8.4c-39.4-7.8-71.4-27.6-95.6-59.7c-17.5-23.3-27.8-49.7-29.4-78.8c-1.3-22.8-0.9-45.6-1.3-68.5
		C99.7,199.2,99.7,196.6,99.7,193.9z M147.1,193.5c0,24.5-1,48.5,0.2,72.3c1.9,36.1,20.5,63.2,49.9,82.8
		c25.6,17.1,54,20.2,83.8,14.4c38.6-7.4,75.6-44.8,82.2-83.6c4.8-28.1,2-56.4,2.5-84.6c0-0.3-0.4-0.7-0.8-1.3
		C292.5,193.5,219.9,193.5,147.1,193.5z"/>
	<path class="st0" d="M185.5,114.6c-15.8,0-30.9,0-46.4,0c-0.1-1.8-0.2-3.2-0.2-4.7c0-25.9-0.1-51.8,0-77.7
		c0-13.2,6.2-22.2,16.6-25.1c15.8-4.4,29.6,5.8,29.9,23.2C185.8,58.1,185.5,85.9,185.5,114.6z"/>
	<path class="st0" d="M373.2,114.6c-15.5,0-30.6,0-46.4,0c0-8.5,0-16.7,0-24.9c0-19.1-0.1-38.3,0-57.4c0.1-14.5,6.5-23,19.1-25.6
		c11.4-2.4,26.3,3.8,26.9,21C374,56.5,373.2,85.4,373.2,114.6z"/>
</g>
</svg>
