<?xml version="1.0" encoding="utf-8"?>
<!-- Generator: Adobe Illustrator 26.4.1, SVG Export Plug-In . SVG Version: 6.00 Build 0)  -->
<svg version="1.1" id="Layer_1" xmlns="http://www.w3.org/2000/svg" xmlns:xlink="http://www.w3.org/1999/xlink" x="0px" y="0px"
	 viewBox="0 0 512 512" style="enable-background:new 0 0 512 512;" xml:space="preserve">
<style type="text/css">
	.st0{fill:#D24527;}
</style>
<path class="st0" d="M354.9,462.4H158l-34-238.1H75.9l37.9,265.3c1.7,11.7,11.7,20.4,23.6,20.4h238.1c11.8,0,21.9-8.7,23.6-20.4
	l37-265.3H388L354.9,462.4z M454.9,144l-293.7,0.9v-7.9c0-34.6,24.7-63.5,57.3-70c7.2,8.6,17.8,14.4,30,14.4h79.4
	c21.9,0,39.7-17.8,39.7-39.7S349.8,2,327.9,2h-79.4c-13.5,0-24.9,7.2-32,17.5c-57.9,8-102.9,57.3-102.9,117.4v7.9L57.1,144
	c-12.3,0-22.9,11.5-22.9,23.8s10.7,23.8,22.9,23.8H454c13.1,0,23.8-10.7,23.8-23.8S468.1,144,454.9,144z"/>
</svg>
