<?xml version="1.0" encoding="utf-8"?>
<!-- Generator: Adobe Illustrator 26.5.0, SVG Export Plug-In . SVG Version: 6.00 Build 0)  -->
<svg version="1.1" id="Layer_1" xmlns="http://www.w3.org/2000/svg" xmlns:xlink="http://www.w3.org/1999/xlink" x="0px" y="0px"
	 viewBox="0 0 512 512" style="enable-background:new 0 0 512 512;" xml:space="preserve">
<style type="text/css">
	.st0{fill:#D24527;}
</style>
<path class="st0" d="M223.9,37.2C223.9,20,238.7,6,255.1,6c18.2,0,32.1,14,32.1,31.2h149.8c4.1,0,8.1,1.7,11,4.6L495,88.7
	c6.1,6.1,6.1,16,0,22.1l-46.9,46.9c-2.9,2.9-6.9,4.6-11,4.6H67.6c-16.4,0-31.2-14-31.2-31.2V68.5c0-17.3,14.9-31.2,31.2-31.2H223.9z
	 M474.8,318.5c0,17.3-14,31.2-31.2,31.2H75c-4.2,0-8.1-1.7-11.1-4.6l-46.9-46.9c-6.1-6.1-6.1-16,0-22.1l46.9-46.9
	c2.9-2.9,6.9-5.5,11.1-5.5h148.9v-31.2h63.4v31.2h156.2c17.3,0,31.2,14.8,31.2,31.2V318.5z M255.1,506c-16.4,0-31.2-14-31.2-31.2
	V381h63.4v93.8C287.3,492,273.3,506,255.1,506z"/>
</svg>
