<?xml version="1.0" encoding="utf-8"?>
<!-- Generator: Adobe Illustrator 26.4.1, SVG Export Plug-In . SVG Version: 6.00 Build 0)  -->
<svg version="1.1" id="Layer_1" xmlns="http://www.w3.org/2000/svg" xmlns:xlink="http://www.w3.org/1999/xlink" x="0px" y="0px"
	 viewBox="0 0 512 512" style="enable-background:new 0 0 512 512;" xml:space="preserve">
<style type="text/css">
	.st0{fill:#D24527;}
</style>
<path class="st0" d="M287.8,33.8c0,17.5-14.2,31.8-31.8,31.8s-31.8-14.2-31.8-31.8S238.4,2,256,2S287.8,16.2,287.8,33.8z
	 M287.8,478.2c0,17.6-14.2,31.8-31.8,31.8s-31.8-14.2-31.8-31.8s14.2-31.8,31.8-31.8S287.8,460.7,287.8,478.2z M478.2,224.2
	c17.6,0,31.8,14.2,31.8,31.8s-14.2,31.8-31.8,31.8s-31.8-14.2-31.8-31.8S460.7,224.2,478.2,224.2z M33.8,287.8
	C16.2,287.8,2,273.6,2,256s14.2-31.8,31.8-31.8s31.8,14.2,31.8,31.8S51.3,287.8,33.8,287.8z M76.4,390.7c12.4-12.4,32.5-12.4,44.9,0
	s12.4,32.4,0,44.8s-32.5,12.4-44.9,0S64,403.1,76.4,390.7z M390.7,435.6c-12.4-12.4-12.4-32.4,0-44.8s32.4-12.4,44.8,0
	s12.4,32.4,0,44.8S403.1,448,390.7,435.6z M121.3,76.4c12.4,12.4,12.4,32.5,0,44.9s-32.5,12.4-44.9,0s-12.4-32.5,0-44.9
	C88.8,64,108.9,64,121.3,76.4z"/>
</svg>
