<?xml version="1.0" encoding="utf-8"?>
<!-- Generator: Adobe Illustrator 26.4.1, SVG Export Plug-In . SVG Version: 6.00 Build 0)  -->
<svg version="1.1" id="Layer_1" xmlns="http://www.w3.org/2000/svg" xmlns:xlink="http://www.w3.org/1999/xlink" x="0px" y="0px"
	 viewBox="0 0 512 512" style="enable-background:new 0 0 512 512;" xml:space="preserve">
<style type="text/css">
	.st0{fill:#D24527;}
</style>
<path class="st0" d="M152,152h32v-16c0-13.3,10.7-24,24-24s24,10.7,24,24v16h128c13.3,0,24,10.7,24,24s-10.7,24-24,24H232v16
	c0,13.3-10.7,24-24,24s-24-10.7-24-24v-16h-32c-13.3,0-24-10.7-24-24S138.7,152,152,152z M152,360c-13.3,0-24-10.7-24-24
	s10.7-24,24-24h128v-16c0-13.3,10.7-24,24-24s24,10.7,24,24v16h32c13.3,0,24,10.7,24,24s-10.7,24-24,24h-32v16c0,13.3-10.7,24-24,24
	s-24-10.7-24-24v-16H152z M32,96c0-35.3,28.7-64,64-64h320c35.3,0,64,28.7,64,64v320c0,35.3-28.7,64-64,64H96c-35.3,0-64-28.7-64-64
	V96z M96,432h320c8.8,0,16-7.2,16-16V96c0-8.8-7.2-16-16-16H96c-8.8,0-16,7.2-16,16v320C80,424.8,87.2,432,96,432z"/>
</svg>
