<?xml version="1.0" encoding="utf-8"?>
<!-- Generator: Adobe Illustrator 26.4.1, SVG Export Plug-In . SVG Version: 6.00 Build 0)  -->
<svg version="1.1" id="Layer_1" xmlns="http://www.w3.org/2000/svg" xmlns:xlink="http://www.w3.org/1999/xlink" x="0px" y="0px"
	 viewBox="0 0 512 512" style="enable-background:new 0 0 512 512;" xml:space="preserve">
<style type="text/css">
	.st0{fill:#1D7A85;}
	.st1{fill:#FFFFFF;}
</style>
<circle class="st0" cx="256" cy="256" r="255"/>
<g>
	<path class="st1" d="M322.9,79.4c-12.1,12.4-22.8,24.1-34.4,34.9c-2.4,2.3-8,2.5-11.9,2c-90.7-13.3-170,60.1-163.7,151.6
		c5.1,73.5,63.3,130.1,136.8,133.3c2.9,0.1,6,0.1,8.9,0.4c13,1.7,21.4,12,20.6,24.8s-10.4,22.2-23.6,21.9
		c-35.3-0.9-68.8-9.1-98.9-28.1c-49.4-31.2-80.6-75.7-88.4-133.7C58,211,83.8,148.6,145.7,103.7C199.5,64.6,259.1,58.6,322.9,79.4z"
		/>
	<path class="st1" d="M322.3,129.3c20.6,19.9,42.4,41,64.8,62.7c-2.6,2.8-4.7,5.2-6.9,7.4c-31.4,30.8-62.4,62-94.5,92.1
		c-9.1,8.5-20.9,14.7-32.5,19.8c-13.5,6.1-28,9.8-42.1,14.5c-7.7,2.7-15.1,2.8-21.1-3.5c-6-6.1-6.2-13.3-3.5-21.2
		c5.5-15.9,10.4-32,16.4-47.8c2.5-6.7,6.1-13.6,11.1-18.5C249.8,199.3,286.3,164.3,322.3,129.3z"/>
	<path class="st1" d="M433,190.7c23.2,58.1,16.1,119.4-28,156.8c-29.8,25.3-64,34.8-102.6,25.9c-16.9-3.9-24.9-14.1-22.1-27.4
		c2.7-12.5,18-20.8,33-18c33.5,6.3,64.4-8.9,78.7-39.4c7.4-15.7,8.7-32.5,5.6-49.5c-1.4-7.6,0-13,5.8-18.3
		C413.5,211.6,422.6,201.5,433,190.7z"/>
	<path class="st1" d="M339.3,109.5c10.6-11,20.1-22.1,30.9-31.7c13.7-12.1,32.1-11.7,46,0.3c6.7,5.8,13.1,12.2,19,18.9
		c13,14.9,12.6,33.7-0.7,48.5c-9.1,10-18.3,19.9-29.5,31.9c-12.2-13-22.7-24.3-33.4-35.4C361.1,131.2,350.3,120.6,339.3,109.5z"/>
</g>
</svg>
