<?xml version="1.0" encoding="utf-8"?>
<!-- Generator: Adobe Illustrator 26.4.1, SVG Export Plug-In . SVG Version: 6.00 Build 0)  -->
<svg version="1.1" id="Layer_1" xmlns="http://www.w3.org/2000/svg" xmlns:xlink="http://www.w3.org/1999/xlink" x="0px" y="0px"
	 viewBox="0 0 512 512" style="enable-background:new 0 0 512 512;" xml:space="preserve">
<style type="text/css">
	.st0{fill:#D24527;}
</style>
<path class="st0" d="M510,256c0,140.3-113.7,254-254,254S2,396.3,2,256c0-52.9,16.2-102,43.8-142.7c7.4-10.8,22.2-13.7,33.1-6.3
	c10.9,7.3,13.7,22.2,6.3,33C62.7,173.2,48.7,213,48.7,256c0,114,93.3,206.4,206.4,206.4C370,462.4,462.4,370,462.4,256
	c0-106-79.8-193.2-182.6-205v54.2c0,13.2-10.6,23.8-24.7,23.8c-12.3,0-23.8-10.6-23.8-23.8V25.8c0-13.1,11.5-23.8,23.8-23.8
	C396.3,2,510,115.7,510,256L510,256z M272,239.1c10.1,9.3,10.1,24.4,0,32.8c-8.4,10.1-23.5,10.1-32.8,0l-79.4-79.4
	c-9.2-8.4-9.2-23.5,0-32.8c9.3-9.2,24.4-9.2,32.8,0L272,239.1z"/>
</svg>
