<?xml version="1.0" encoding="utf-8"?>
<!-- Generator: Adobe Illustrator 26.5.0, SVG Export Plug-In . SVG Version: 6.00 Build 0)  -->
<svg version="1.1" id="Layer_1" xmlns="http://www.w3.org/2000/svg" xmlns:xlink="http://www.w3.org/1999/xlink" x="0px" y="0px"
	 viewBox="0 0 512 512" style="enable-background:new 0 0 512 512;" xml:space="preserve">
<style type="text/css">
	.st0{fill:#D24527;}
</style>
<path class="st0" d="M200.2,395.6c0,8.6-7,15.6-15.6,15.6s-15.6-7-15.6-15.6V192.5c0-8.6,7-15.6,15.6-15.6s15.6,7,15.6,15.6V395.6z
	 M278.4,395.6c0,8.6-7,15.6-15.6,15.6s-15.6-7-15.6-15.6V192.5c0-8.6,7-15.6,15.6-15.6s15.6,7,15.6,15.6V395.6z M356.5,395.6
	c0,8.6-7,15.6-15.6,15.6s-15.6-7-15.6-15.6V192.5c0-8.6,7-15.6,15.6-15.6s15.6,7,15.6,15.6V395.6z M354.1,29.4l35.8,53.8h68.2
	c13,0,23.4,10.5,23.4,23.4c0,13-10.4,23.4-23.4,23.4h-7.8v296.9c0,43.2-35,78.1-78.1,78.1H153.4c-43.1,0-78.1-35-78.1-78.1V130h-7.8
	C54.5,130,44,119.6,44,106.6c0-12.9,10.5-23.4,23.4-23.4h68.2l35.8-53.8C181.6,14.1,198.7,5,216.9,5h91.6
	C326.8,5,343.9,14.1,354.1,29.4L354.1,29.4z M191.9,83.1h141.6L315,55.4c-1.5-2.2-3.9-3.5-6.4-3.5h-91.6c-2.5,0-5.9,1.3-6.4,3.5
	L191.9,83.1z M122.1,426.9c0,17.3,14,31.2,31.2,31.2h218.8c17.3,0,31.2-14,31.2-31.2V130H122.1V426.9z"/>
</svg>
