<?xml version="1.0" encoding="utf-8"?>
<!-- Generator: Adobe Illustrator 26.5.0, SVG Export Plug-In . SVG Version: 6.00 Build 0)  -->
<svg version="1.1" id="Layer_1" xmlns="http://www.w3.org/2000/svg" xmlns:xlink="http://www.w3.org/1999/xlink" x="0px" y="0px"
	 viewBox="0 0 512 512" style="enable-background:new 0 0 512 512;" xml:space="preserve">
<style type="text/css">
	.st0{fill:#D24527;}
</style>
<g>
	<path class="st0" d="M255.8,5.7C395.2,7.9,505.8,115.4,506,256c0.2,139.5-109.2,250-249.8,250.2C116.7,506.5,6.2,397.1,6,256.5
		C5.8,117.1,115.1,8.3,255.8,5.7z M51.8,256.2c0,112.8,91.7,204.4,204.5,204.2c112.3-0.2,203.5-91.2,203.9-203.5
		c0.4-112.7-91-204.7-203.9-204.9C143.6,51.8,51.8,143.4,51.8,256.2z"/>
	<path class="st0" d="M303.4,243.1c-2.4,27.5-0.8,52.6,9.9,76.9c7.4,16.7,12.8,34.2,18.5,51.5c4.8,14.8-1.1,27.5-14,32.1
		c-11.3,4-24.7-3-29.8-16.8c-7.5-19.9-13.9-40.3-21.6-60.1c-1.7-4.5-6.9-7.6-10.6-11.4c-3.5,3.8-8.6,7.1-10.4,11.6
		c-7.4,19-13.7,38.5-20.8,57.6c-5.7,15.6-18.7,23.4-30.8,18.9c-13.5-5-18.7-18.2-13-34.8c5.6-16.5,11-33.1,17.8-49
		c9.1-21.3,11.9-43.2,10.9-66.2c-0.3-7.7-2.2-11.4-10.1-13.4c-18.6-4.6-36.9-10.1-55.2-15.5c-15.9-4.7-23.3-15.6-20.1-28.7
		c3.4-13.7,15.5-19.8,32.2-15.5c16.8,4.3,33.5,9.2,50.2,14.1c33,9.8,66,9.7,99-0.1c17.1-5.1,34.2-10.1,51.5-14.4
		c15.1-3.8,26.6,2.2,30.4,14.8c3.9,12.9-3.3,24.8-18.7,29.4C347.1,230.9,325.3,236.9,303.4,243.1z"/>
	<path class="st0" d="M294.7,138.3c0.2,21-18.1,39.3-39.1,39.1c-20.5-0.2-38.2-17.9-38.4-38.4c-0.2-21,18.1-39.3,39.1-39.1
		C276.8,100.1,294.6,117.8,294.7,138.3z"/>
</g>
</svg>
