<?xml version="1.0" encoding="utf-8"?>
<!-- Generator: Adobe Illustrator 26.4.1, SVG Export Plug-In . SVG Version: 6.00 Build 0)  -->
<svg version="1.1" id="Layer_1" xmlns="http://www.w3.org/2000/svg" xmlns:xlink="http://www.w3.org/1999/xlink" x="0px" y="0px"
	 viewBox="0 0 512 512" style="enable-background:new 0 0 512 512;" xml:space="preserve">
<style type="text/css">
	.st0{fill:#1D7A85;}
</style>
<g>
	<path class="st0" d="M208,311.1c-92.9,0-168.5,75-168.5,167.1c0,13.4,11,24.3,24.5,24.3h384c13.5,0,24.5-10.9,24.5-24.3
		c0-92.1-75.6-167.1-168.5-167.1H208z M439.5,469.9h-367l1.1-8.4C82,394.4,139.8,343.8,208,343.8h96c68.2,0,126,50.6,134.4,117.7
		L439.5,469.9z M256,9.5c-66.4,0-120.5,53.6-120.5,119.5S189.6,248.5,256,248.5c66.4,0,120.5-53.6,120.5-119.5S322.4,9.5,256,9.5z
		 M256,215.9c-48.2,0-87.5-39-87.5-86.9s39.3-86.9,87.5-86.9c48.2,0,87.5,39,87.5,86.9S304.2,215.9,256,215.9z"/>
</g>
</svg>
