<?xml version="1.0" encoding="utf-8"?>
<!-- Generator: Adobe Illustrator 26.4.1, SVG Export Plug-In . SVG Version: 6.00 Build 0)  -->
<svg version="1.1" id="Layer_1" xmlns="http://www.w3.org/2000/svg" xmlns:xlink="http://www.w3.org/1999/xlink" x="0px" y="0px"
	 viewBox="0 0 512 512" style="enable-background:new 0 0 512 512;" xml:space="preserve">
<style type="text/css">
	.st0{fill:#D24527;}
</style>
<path class="st0" d="M256,47.6c-10.8,0-19.5,8.8-19.5,18.8v378.5c0,10.8,8.7,19.5,18.8,19.5c10.1,0,20.3-8.7,20.3-19.5V66.4
	C275.5,56.3,266.8,47.6,256,47.6z M177.8,125.7c-10.8,0-19.5,8.7-19.5,18.8V366c0,11.6,8.7,20.3,18.8,20.3s20.3-8.7,20.3-19.5V144.5
	C197.4,134.5,188.7,125.7,177.8,125.7z M334.2,151.8c-10.8,0-19.5,8.7-19.5,18.8v169.3c0,11.6,8.7,20.3,18.8,20.3
	c10.1,0,20.3-8.7,20.3-19.5V170.6C353.7,160.5,345,151.8,334.2,151.8z M412.3,99.7c-10.8,0-19.5,8.8-19.5,18.8v274.3
	c0,10.8,8.7,19.5,18.8,19.5c11.6,0,20.3-8.7,20.3-19.5V118.5C431.8,108.4,423.1,99.7,412.3,99.7z M99.7,203.9
	c-10.8,0-19.5,8.7-19.5,18.8v65.9c0,10.8,8.7,19.5,18.8,19.5s20.3-8.7,20.3-19.5v-65.9C119.2,212.6,110.5,203.9,99.7,203.9z
	 M21.5,229.9c-10.8,0-19.5,8.7-19.5,18.8v13.8c0,10.8,8.8,19.5,18.8,19.5s20.3-8.7,20.3-19.5v-13.8
	C41.1,238.7,32.3,229.9,21.5,229.9z M490.5,229.9c-10.8,0-19.5,8.8-19.5,18.8v13.8c0,10.8,8.7,19.5,19.5,19.5
	c10.8,0,19.5-8.8,19.5-18.8v-14.5C510,238.7,501.3,229.9,490.5,229.9z"/>
</svg>
